<?xml version="1.0" encoding="utf-8"?>
<!-- Generator: Adobe Illustrator 28.1.0, SVG Export Plug-In . SVG Version: 6.00 Build 0)  -->
<svg version="1.1" id="Layer_1" xmlns="http://www.w3.org/2000/svg" xmlns:xlink="http://www.w3.org/1999/xlink" x="0px" y="0px"
	 viewBox="0 0 595.3 841.9" style="enable-background:new 0 0 595.3 841.9;" xml:space="preserve">
<style type="text/css">
	.st0{fill:#FFFFFF;}
	.st1{fill:#B8C7A8;}
</style>
<g>
	<rect x="15.7" y="120.3" class="st0" width="560" height="560"/>
	<path class="st1" d="M595.7,700.3c-200.2,0-400,0-600,0c0-200,0-399.8,0-599.8c1.3-0.1,2.5-0.2,3.6-0.2c197.3,0,394.6,0,592-0.1
		c3.4,0,4.4,0.8,4.4,4.3c-0.1,196,0,392,0,588.1C595.7,695.1,595.7,697.6,595.7,700.3z M202.6,518.5c-0.8,0.3-1.4,0.5-2,0.8
		c-11.9,6.3-18.8,16.5-21.7,29.2c-4.4,19.2-0.2,36.2,14.7,49.6c6.8,6.1,15.1,9,24.1,9.8c2.2,0.2,5,1.1,5.9-2.8
		c1-4.2,2.3-8.4,4.1-12.2c3.7-7.7,7.8-15.2,11.7-22.9c3.1-6.2,7.5-8.8,14.4-7.9c3.1,0.4,6.2,1.3,9.1,2.6c6.1,2.7,12.1,5.7,18.4,8.6
		c0.5-2.7,1-5.3,1.6-8.7c-14.3-4.4-20-16-23.8-29.1c-1-3.4-2.7-6.3-7-6.4c-4.2-0.1-6.2,2.6-7.3,6c-5.5,16.9-15,31.9-23,47.7
		c-1.9,3.8-4,7.5-6.4,10.9c-0.8,1.1-3.1,2.1-4.4,1.8c-5.4-1.2-10-3.8-13.7-8.1c-16.4-19.3-9.7-53.6,11.1-60.4
		C206.5,524.1,204.6,521.4,202.6,518.5z M307.8,227.2c-2,8.5-2.2,8.9,5.2,12.4c6.7,3.2,10.7,8.2,13.1,15c0.9,2.7,2.2,5.4,3.3,8
		c1.7,3.8,2.6,8.4,8.2,8.3c5.6,0,6.6-4.5,8.1-8.4c6.8-18.1,16.6-34.7,25.9-51.6c0.7-1.3,1.4-2.7,2.5-3.5c1.2-0.9,3.3-2.1,4.3-1.6
		c4.3,1.9,9.1,3.6,12.2,6.8c18.5,19.2,11.2,53.2-9.1,61.5c1.6,2.7,3.2,5.4,4.8,8c5.3-1.3,9.8-4.2,13.8-9
		c6.9-8.4,10.7-18.1,11.8-28.9c2.7-26-15-48.3-40.8-51.1c-1.7-0.2-3.6,0.2-4.5,0.3c-1.1,4.5-1.4,8.6-3.1,12c-4.2,8.6-9,17-13.6,25.5
		c-3.6,6.8-8.9,9.4-16.4,7.5c-4.3-1.1-8.5-2.8-12.6-4.6C316.4,231.8,312.1,229.4,307.8,227.2z M225.2,193.1
		c-14.4-0.6-26.2,3.5-35.3,13.5c-13.2,14.5-15.9,31.5-9.7,49.8c3.9,11.5,10.4,21.1,22.6,25.6c2-3.1,3.7-5.8,4.9-7.8
		c-3.8-3.1-8-5.4-10.7-8.9c-6.8-8.4-10.2-18.3-8.9-29.1c1.5-12.8,6-24.1,19.2-29.6c6.5-2.7,6.6-2.7,10,3.4
		c10.1,17.9,20.3,35.8,27.5,55.1c1.2,3.3,3.1,5.7,7.1,5.7c4,0,5.8-2.4,7.1-5.7c2-4.9,3.7-10,6.3-14.5c2-3.4,4.9-6.4,7.9-9
		c2.9-2.4,6.4-4,9.6-5.9c-0.6-2.9-1.1-5.6-1.7-8.5c-2,1-3.5,2-5.2,2.7c-6.1,2.7-12.1,5.9-18.5,8c-8.7,2.8-14,0.1-18.2-7.9
		c-3.7-7-7-14.2-11-21C225.6,204.3,223.2,199.7,225.2,193.1z M485.8,565.6c1.9,0,4.5,0.2,7.1-0.1c0.8-0.1,2.2-1.3,2.2-2
		c0.1-4.2,0.7-8.5-0.2-12.5c-2.4-10.2-0.7-14.3,8.5-19.3c2-1.1,4.2-2.5,5.4-4.3c3.8-5.8,4.4-12.2,2.7-19c-0.7-2.7-2-3.6-4.8-2.9
		c-6.9,1.7-14,1.8-20.7-0.8c-7.8-3-15.8-3.9-24.1-3.2c-3.1,0.3-5-0.9-6.8-3.5c-9.7-14.6-19.1-29.4-24.5-46.3c-1-3.2-2.9-5.5-6.8-5.6
		c-4-0.1-6.1,2.1-7.4,5.4c-1.6,4-3.3,8.1-4.7,12.2c-2.2,6.8-6.3,11.9-12.7,15.4c-5.8,3.2-6,4.5-3.6,11.6c1.3-0.6,2.6-1.1,3.8-1.7
		c5-2.9,10-6,15.1-8.6c9.3-4.8,16.8-2.6,22.2,6.2c4.5,7.3,9,14.6,13.3,22c1.8,3.1,4,4.3,7.6,4.2c15.1-0.2,30.1-0.1,45.4-0.1
		c0.1,3.5-2,6.4-4.9,8.8c-2.6,2.2-5.4,4.2-8.1,6.3c-4.6,3.6-6.6,8.3-6.1,14.2C484.6,549.5,485.1,557.1,485.8,565.6z M190.3,522.8
		c-4-3.2-5.8-3.1-8.8,0.6c-1.7,2-3.2,4.2-4.7,6.4c-6.4,9.5-18.5,9-24.2-0.9c-4.5-7.8-9-15.5-13.7-23.1c-1-1.6-2.9-3.7-4.5-3.8
		c-9.4-0.4-19-1.9-28.1,1.8c-6.9,2.8-14.1,3.5-21.4,2.4c-3.1-0.5-4.3,0.7-5.2,3.3c-3.4,9.5,0,18.8,8.7,23.9
		c7.8,4.6,9.3,9.3,6.7,17.9c-1.2,3.9-1,8.3-1.1,12.4c0,0.9,1.3,2.5,2.2,2.6c2.8,0.3,5.6,0.1,7.8,0.1c0.4-6.3-0.1-12.3,1.2-17.7
		c2.4-9.9-0.3-17.1-8.5-23C92.8,523,90,519,87,515.4c-0.8-0.9-0.8-2.5-1.5-4.5c11.1,3.9,21.4,2.6,31.8,1.6c3-0.3,6.1-0.1,9.1-0.3
		c2.8-0.1,4.7,0.9,6.3,3.3c8.4,12.8,16.9,25.5,22.4,39.9c1.2,3.1,2.4,6.2,4.1,8.9c2.8,4.4,8.9,4.1,11.4-0.4c1.7-3.2,3.3-6.7,4-10.3
		c2.5-11.4,6.8-21.9,15.6-30C190.3,523.4,190.2,523.1,190.3,522.8z M508.3,391.7c2,0.9,3.9,1.4,5.3,2.5c3.2,2.4,5.8,1.9,9.2,0.1
		c10.3-5.5,24.2-2,31.3,7.3c11.7,15.3,10.8,45.1-1.9,59.7c-3.4,3.9-7.7,6.3-12.9,7.1c-10.8,1.6-19.7-2.2-27.4-9.4
		c-3.6-3.3-6.8-7-10.5-10.2c-4.3-3.7-10.2-2.6-12.9,2.1c-2.4,4.2-1,6.8,3.5,8.1c3.2,0.9,6.4,2.4,9.1,4.2c3.9,2.7,7.2,6.1,11,9
		c17.5,13,41.2,8.3,52.4-10.4c7.8-12.9,9.4-27,7.6-41.6c-2-15.8-9-28.6-23.9-35.8C535.2,377.8,517.2,381,508.3,391.7z M86.5,288.7
		c-0.4-0.4-0.8-0.8-1.2-1.2c2.3-2.9,4.3-6.1,6.8-8.8c2.6-2.6,5.7-4.7,8.5-7.1c3.5-3,5.5-6.8,5.3-11.4c-0.5-8.6-1.4-17.1-2.1-26.3
		c-1.2,0-3.2,0.2-5.1,0c-3.1-0.4-4.6,1-4.5,3.9c0.1,3.9-0.1,8,0.9,11.6c2.6,8.9,1.3,13.2-6.6,17.9c-9.3,5.6-12.6,14.2-9.7,24.5
		c0.8,2.8,2.1,3.5,5.1,3.2c5.6-0.5,11.3-0.5,16.9-0.1c4.2,0.3,7.2,2.8,9,6.8c1.8,4.1,3.8,8.1,5.7,12.2c1.5,3.2,3.5,6,7.7,5.7
		c4-0.2,5.5-3,6.8-6.2c1.8-4.5,3.8-9,5.4-13.6c2.1-5.7,5.6-10.3,10.8-13.2c7.6-4.2,15.5-7.8,23.2-11.8c2.7-1.4,5.2-3,7.8-4.5
		c-0.2-0.5-0.3-1-0.5-1.5c-1.4-0.3-2.9-0.7-4.3-0.7c-12.9-0.1-23.9,5-33.6,12.9c-7.9,6.4-16.4,8.1-26.2,6.6
		c-6.4-0.9-13.1-0.4-19.6-0.3C90.7,287.3,88.6,288.2,86.5,288.7z M119.4,400.1c0-0.4-0.1-0.8-0.1-1.2c-0.8-0.3-1.6-0.9-2.5-1
		c-8.1-1.4-16.3-3.2-24.5-4c-12.4-1.2-20-7-23.1-19c-3.3-12.5-0.3-24,6.3-34.8c2.1-3.4,5.4-4.9,9.3-5.4c5.2-0.6,9.5,1.1,13.4,4.6
		c3.6,3.3,7.6,6.2,11.8,9.6c0.2-4,0.5-6.9,0.5-9.7c0-0.8-0.4-1.9-0.9-2.3c-6.3-4.9-9.7-11.7-12.5-18.9c-0.4-1-1.3-2.2-2.2-2.4
		c-5.6-1.2-11.2-2.2-16.3-3.1c-4.9,9.4-10,18.8-14.5,28.4c-2.6,5.7-5.3,11.6-6.2,17.7c-3.4,24.4,11.5,49.7,42.1,45.8
		C106.6,403.5,113,401.5,119.4,400.1z M200.1,610.4c4.4,2.5,8.7,4.7,12.7,7.3c5.3,3.5,10.1,7.8,15.6,10.7c5.3,2.8,11.1,5.4,16.9,5.9
		c15.8,1.5,29-8,34.5-23.5c0.7-2.1,1.5-4.2,2.2-6.4c0.5,0.1,0.9,0.2,1.4,0.3c-0.3,1.9-0.4,4-1,5.8c-3.4,10.7-9.9,18.7-20.1,23.7
		c-1.3,0.6-2.8,1.8-3.2,3c-1.1,3.2-1.9,6.6-2.3,10c-0.6,4.3,3.3,9.1,7.8,9.8c0.3-3.3,0.6-6.5,0.8-9.8c0.4-5.5,3.1-9.4,7.6-12.3
		c5-3.3,8.8-7.1,10.8-12.5c2.4-6.4,4.4-13,5.9-19.6c1.1-5.3-0.2-10.4-4.5-14.5c-1.8-1.7-3.4-3.9-4.2-6.2
		c-2.5-7.1-10.4-13.3-18.5-13.9c1.2,2.1,2.3,4,3.4,5.9c4.7,8.2,7,17,6,26.5c-1.7,15.9-14.3,25.7-29.6,22.5
		c-4.2-0.9-8.1-3.5-12.2-5.4c-6.1-2.8-12-5.9-18.2-8.2C208.3,608.4,204.1,608.4,200.1,610.4z M70.3,323.5c0.7-1.5,1.3-2.8,1.8-4.1
		c2.2-5.4,2.2-5.4-3.4-7.4c-15.2-5.4-33.2,0.8-42,16c-13.4,23-12.6,46.6,0.3,69.6c5.9,10.5,15.8,16,27.7,17.6
		c10.4,1.3,19.6-2,28.4-8.4c-3.4-1.7-6.1-3.2-9-4.3c-1.4-0.5-3.3-0.9-4.6-0.3c-14.6,6-29,1.1-35.6-13.1c-7.7-16.4-8.2-33.5-1.4-50.3
		C39.2,322.1,53.3,316.6,70.3,323.5z M201.2,191.2c4.1,1.5,9,1.5,13.4-0.5c6.2-2.8,12.4-5.8,18.1-9.5c16.5-10.9,37.2-1.3,39.4,18.4
		c1,9.7-1.2,18.6-6,26.9c-1.1,2-2.2,3.9-3.4,5.8c0.3,0.2,0.5,0.5,0.8,0.7c2.9-1.4,5.8-3.1,8.8-4.2c5.5-2,8-6,9.1-11.4
		c0.3-1.3,0.8-3.1,1.8-3.8c8.1-5.7,8.2-13.2,5.4-21.5c-2.1-6.2-4.5-12.4-6.1-18.8c-0.7-2.8-1.7-4.2-4.3-5.2
		c-8.7-3.5-13.5-9.7-12.8-19.6c0.1-1.9-0.2-3.8-0.3-5.8c-6.5,2.5-8.7,6.4-7.6,12.3c0.4,2.1,1.1,4.1,1.3,6.2c0.3,3,1.8,4.5,4.5,5.8
		c10.5,5.1,16.9,13.6,19.8,24.8c0.3,1.3,0,2.8,0,4.2c-0.3,0-0.7,0.1-1,0.1c-0.6-1.9-1.2-3.9-1.9-5.8c-7.7-22.5-31.7-31-51.6-18.1
		C219.4,178.3,210.3,184.9,201.2,191.2z M326.2,568.7c-0.2-0.2-0.4-0.4-0.6-0.7c-2.6,1.2-5.1,2.6-7.8,3.6c-5.3,1.9-8.2,5.6-9.5,11
		c-0.5,2.1-2.2,4.1-3.8,5.6c-3.1,2.9-4.9,6.4-4.8,10.5c0.1,3.4,0.5,6.8,1.5,10.1c1.7,6.1,4.1,12,5.7,18.1c0.7,2.7,1.4,4.3,4.2,5.3
		c9,3.3,13.9,9.6,13.2,19.6c-0.1,1.8,0.3,3.7,0.5,5.8c7-3.1,8.7-6.3,7.1-12.9c-0.4-1.7-1-3.3-1.1-5c-0.1-3.1-1.7-4.6-4.3-5.9
		c-10.7-5.1-17.1-13.7-20-25.1c-0.3-1.4-0.2-2.8-0.3-4.3c0.4-0.1,0.8-0.1,1.2-0.2c0.8,2.4,1.6,4.7,2.4,7.1
		c7.2,20.5,30,29.5,48.2,18.6c10.4-6.2,20.2-13.4,30.9-20.5c-3.9,0-7.8-0.5-11.5,0.1c-7.3,1.1-13.6,4.7-19.6,8.9
		c-16.9,12-37,3.5-40.2-17c-1.4-9,0.5-17.6,4.7-25.6C323.5,573.5,324.9,571.1,326.2,568.7z M389.2,191.8c0.1-0.6,0.1-1.2,0.2-1.8
		c-8.6-1.8-14.7-7.5-21.3-12.5c-2-1.5-4-3-6.1-4.4c-20.6-14-46-4.9-53,19c-0.4,1.3-0.9,2.5-1.4,3.7c-0.4-0.1-0.7-0.1-1.1-0.2
		c0-1.3-0.3-2.7,0-3.9c3.1-11.7,10-20.1,20.9-25.3c1.4-0.7,3-1.9,3.4-3.3c1-3.1,1.5-6.4,2-9.7c0.6-4.1-3.6-9.1-8-9.5
		c-0.2,3.1-0.5,6.3-0.7,9.4c-0.3,5.3-2.9,9.2-7.4,11.9c-3.2,2-9.8,9.2-11.1,12.7c-2.2,6.2-4.4,12.4-5.9,18.8
		c-1.3,5.5-0.3,10.7,4.4,14.8c1.7,1.5,2.8,3.9,3.9,6c1.4,2.8,1.7,6.8,3.8,8.4c4.2,3.1,9.3,5,14.1,7.4c-0.8-3.1-2.2-5.5-3.5-7.9
		c-5-9.6-7.1-19.6-4.1-30.2c3.7-13.1,14.4-20.4,27.5-17.9c4.6,0.8,8.8,3.7,13.2,5.8c6.2,2.9,12.1,6.3,18.5,8.5
		C381.2,192.8,385.4,191.8,389.2,191.8z M503.3,289c-3.5-0.7-6.5-1.9-9.6-1.9c-7.5,0-15,0.3-22.4,1.1c-9.4,1-17.4-1.3-24.2-8
		c-3-2.9-6.3-5.8-9.9-7.7c-3.7-1.9-8.1-3.5-12.3-3.6c-8.4-0.3-12.3,7.2-8.5,14.6c1.3,2.6,3.1,3.7,6,2.9c5.8-1.6,11.3-0.3,16.3,2.6
		c3.7,2.1,7.2,4.4,10.8,6.6c1.3,0.8,2.7,2,4.2,2.1c9.3,1.2,18.6,3,27.7-0.7c7.8-3.1,15.7-4.2,24-2.3c1.1,0.2,2.9-0.5,3.5-1.4
		c5.1-7.9,1.7-20.9-6.6-25.4c-8.7-4.8-10.5-9.8-7.9-19.3c1-3.6,0.5-7.7,0.4-11.6c0-0.8-1.3-2.1-2.1-2.2c-2.7-0.3-5.4-0.1-7-0.1
		c-0.7,8.1-1.2,15.3-2,22.4c-0.8,6.6,1.3,11.9,6.7,15.8c2.6,1.9,5.1,3.8,7.5,5.8C500.9,281.3,503.3,284.2,503.3,289z M96.9,434.9
		c2.1,3.6,5.1,5.6,8.8,5.7c8.3,0.3,16.6,0.2,24.8,0.2c3.7,0,6.1-1.9,7.9-5c4.8-8,9.7-16,14.6-24c5.5-9,17.9-9,23.6-0.1
		c2.5,3.9,5,7.8,7.6,11.6c3.2,4.7,8.8,6.2,14.6,4.1c-0.5-0.8-1-1.6-1.5-2.3c-10.1-13.6-19.1-27.8-24.3-44.2c-0.4-1.2-1-2.4-1.6-3.6
		c-2.7-4.9-9.4-5-12.2-0.1c-1.1,1.8-2,3.7-2.7,5.7c-5.1,14.9-13.9,27.7-21.9,41.1c-3.2,5.4-7.1,7.7-13.4,7.2
		C112.9,430.6,104.7,430.9,96.9,434.9z M490.7,364.2c-3-3.9-6.9-5.8-11.6-6c-4.6-0.1-9.2-0.3-13.8,0c-4.9,0.3-8.2-1.6-10.7-5.8
		c-8.2-13.6-17.3-26.9-22.2-42.2c-0.5-1.6-1.3-3.2-2.1-4.7c-1.4-2.9-3.1-5.2-6.8-5.1c-3.7,0.1-6,2-7.2,5.2
		c-4.7,13.1-10.8,25.4-18.6,37c-0.6,0.9-0.8,2.7-0.3,3.5c1.4,2.3,3.3,4.3,5.3,6.8c2.6-4.3,5-8,7.1-12c2.9-5.4,6.6-9.1,13.2-9.1
		c6.8-0.1,10.5,3.7,13.5,9.2c4.2,7.7,8.9,15.3,13.2,23c1.5,2.6,3.4,4.1,6.5,4.3C467.9,369.1,479.4,369.4,490.7,364.2z M186.3,352.6
		c1.3-1.6,2.1-2.5,2.8-3.4c3.9-5,3.6-4.8,0.6-10.3c-4.8-8.9-9.2-18-13.7-27.1c-1.2-2.4-2-4.9-3-7.3c-1.2-2.8-3-4.8-6.5-4.9
		c-3.5,0-5.7,1.6-7,4.7c-0.2,0.5-0.5,1-0.6,1.4c-5.7,15.4-13.8,29.5-22.5,43.4c-3.5,5.6-7.4,8.2-14,7.6c-4.7-0.4-9.5,0-14.2,0.6
		c-3.5,0.5-6.9,1.8-8.1,5.9c8.6,4,16.8,4.9,32.3,3.9c3.4-0.2,5.6-1.5,7.2-4.5c4.8-8.4,9.9-16.5,14.7-24.8c5.4-9.5,19.9-8.5,23.8,0.2
		C180.2,343,183.3,347.4,186.3,352.6z M380.7,527.4c11.6,4.1,16.2,13.4,18.9,23.7c1.3,5,1.3,10.5,0.9,15.6
		c-0.6,8.4-4.5,15.7-9.8,22.1c-6.1,7.3-16.3,9.3-26,6.2c-4.1-1.3-8.6-2.3-12.9-2.2c-4.4,0.1-7.8,4.1-8.4,8.2c-0.6,3.9,0.7,7,4.1,9.2
		c3.8,2.5,7.9,2.5,11.5-0.2c2.7-2,5.4-2.4,8.5-2.1c7.7,0.5,14.9-1.2,21.6-5c28.2-16.2,30.9-59.8,5-79.6c-2.2-1.7-4.8-3-7.4-4.7
		C384.5,521.6,382.8,524.2,380.7,527.4z M277.4,417.5c-2.7-4.3-5.6-8.4-7.8-12.9c-3.6-7.5-6.8-15.1-10.1-22.8
		c-1.4-3.2-3.3-5.7-7.2-5.7c-4,0-6.1,2.4-7.2,5.7c-5.4,15.8-14.4,29.5-23.4,43.3c-3.2,4.8-6.7,7-12.2,6.6
		c-5.1-0.4-10.3-0.5-15.4-0.9c-2.5-0.2-4.4,0-4.5,3.2c0,1.2-0.7,2.5-1.1,3.9c10.9,4.3,22,4.4,33.2,3.3c1.3-0.1,2.9-1.7,3.7-3.1
		c5-7.9,9.7-16,14.5-24c5.7-9.5,18.7-9.4,24.2,0.2c2,3.5,4.1,7,6.3,10.7C272.9,422.3,275.1,419.9,277.4,417.5z M399,432.7
		c-7.6,0-14.8-0.2-22,0.1c-4.1,0.2-6.6-1.4-8.7-4.7c-9.3-14.5-19.2-28.8-24.6-45.4c-0.3-1-0.8-1.9-1.3-2.9c-1.4-2.6-3.6-3.6-6.5-3.5
		c-3.8,0.1-5.4,2.7-6.8,5.7c-4.1,9.1-7.9,18.4-12.6,27.2c-4.2,7.8-4.6,7.6,1.6,14.1c0.1,0.1,0.2,0.1,0.9,0.4
		c1.9-3.2,3.7-6.5,5.7-9.7c5.7-8.9,18.1-8.7,23.5,0.3c5,8.2,9.9,16.5,15.1,24.6c1.1,1.7,3.3,3.6,5,3.7c8.4,0.1,16.8-0.3,25.2-0.9
		c3.3-0.2,7.2-0.9,5.3-6.2C398.4,434.6,398.9,433.5,399,432.7z M436.4,316.8c0.5,0.1,1,0.2,1.5,0.3c0.4-0.3,0.8-0.6,1.2-0.9
		c7.4-6.2,11.4-5.8,17.5,1.7c0.3,0.4,0.6,0.8,1,1.2c5,6.1,9.6,6.4,15.4,0.9c1-0.9,1.9-1.9,2.8-2.8c5.3-5.1,9.9-5,14.9,0.5
		c0.9,1,1.7,2,2.5,3c3.8,5.1,8.3,9.1,14.5,11.2c5.2,1.7,8.2,5.7,9.5,10.8c2.2,8.3,0.7,16.2-3.7,23.5c-2.2,3.6-4.3,7.3-5.9,11.2
		c-0.9,2.2-0.6,4.8-0.8,7.2c0.4,0,0.7,0.1,1.1,0.1c5.1-7.7,10.5-15.2,15-23.1c2.2-3.9,3.5-8.6,4.2-13c1.5-10.1-2.9-19.4-11.5-23.6
		c-8.3-4.1-15.4-9.4-21.9-16c-7.2-7.3-16.1-9-25.8-4.8c-1.1,0.5-2.8,0.5-3.9-0.1c-11.1-5.7-19.9-3.5-26.8,7
		C436.4,312.7,436.7,314.9,436.4,316.8z M491.5,624.8c0.5-0.1,1-0.1,1.4-0.2c0.9-2.7,1.6-5.4,2.7-8.1c3.4-8.7,2.9-16.8-2.5-24.8
		c-7.6-11.4-14-23.6-17.9-36.9c-0.2-0.6-0.3-1.4-0.8-1.8c-2.1-1.6-4.2-4.2-6.4-4.3c-2.2-0.1-5.2,1.9-6.6,3.8
		c-2.1,2.9-3.3,6.6-4.4,10.1c-3,9-8.1,16.4-15.6,22.4c-3.2,2.5-6.3,5.3-9,8.3c-1.1,1.2-1,3.4-1.4,5.2c1.9,0.3,4.1,1.4,5.7,0.8
		c3-1.2,5.7-3.2,8.3-5.2c3.9-3.1,7.5-6.6,11.5-9.6c7.1-5.3,16.6-4,22.3,2.8c6.4,7.7,10.6,16.2,10.3,26.6
		C489.2,617.6,490.7,621.2,491.5,624.8z M100,176.7c-0.4,0.1-0.8,0.1-1.3,0.2c-5.4,10.5-9.5,20.8-1.4,32.4
		c7.3,10.4,13.1,21.6,16.7,33.9c0.5,1.6,1.3,3.2,2.3,4.6c2.9,4.4,9.1,4.3,11.8-0.2c1.3-2.1,2.2-4.5,3.1-6.8
		c4-10.5,9.7-19.8,17.9-27.6c3-2.8,5.8-5.7,8.4-8.9c0.8-1,1.3-3.8,0.6-4.4c-1-1-3.5-1.5-4.7-0.9c-3.4,1.9-6.6,4.3-9.6,6.8
		c-3.9,3.1-7.4,6.7-11.4,9.8c-6.1,4.7-15.9,3.6-20.8-2.2c-6.4-7.7-11.2-15.8-9.9-26.6C102.2,183.6,100.7,180.1,100,176.7z
		 M490,176.4c-0.6,4.9-1.6,8.8-1.4,12.7c0.4,8.5-2.3,15.7-7.4,22.3c-7,9-15.1,11.2-25.6,6.5c-8.7-3.8-17.4-7.6-26.1-11.4
		c-0.8-0.3-1.7-0.5-2.8-0.8c-0.1,4.2,2.1,7,4.8,8.9c4.9,3.5,10.3,6.4,15.2,9.9c2.6,1.8,5.2,4.1,6.7,6.8c2.8,4.9,4.7,10.3,7.1,15.4
		c1.5,3.2,3.2,6.2,7.4,6.1c4.3,0,6.5-2.8,7.6-6.4c4.2-14.2,11.7-26.7,19.1-39.3C499.5,198.6,497.7,185.4,490,176.4z M96.9,624.4
		c0.6,0.1,1.3,0.1,1.9,0.2c0.7-3.5,2.1-7,1.9-10.4c-0.4-9.7,3-17.7,8.9-25.1c5.4-6.7,12.2-9.3,20.6-7c2.7,0.7,5.2,1.9,7.7,3
		c7.8,3.3,15.5,6.7,23.3,10c0.9,0.4,1.9,0.5,3.3,0.9c-0.8-5-3.7-7.8-7.1-10.1c-4.4-2.9-8.9-5.6-13.6-8.1c-3.7-2-6.1-4.8-7.8-8.5
		c-2.6-5.8-5.2-11.6-8.1-17.1c-2.5-4.7-8.8-4.8-11.7-0.3c-1.2,1.8-1.8,4.1-2.7,6.1c-3,7.1-5.7,14.4-9.1,21.4
		c-2.6,5.3-6.1,10.2-9.2,15.2c-3,5-3.9,10.4-2.6,16C93.6,615.2,95.4,619.8,96.9,624.4z M476.9,640.1c-8.1,2.3-10.9,9.6-7.4,16.8
		c2.8,5.7,2,7.7-4.4,9.2c-7.5,1.8-14.9,1.1-22.3-0.6c-3.1-0.7-6.4-3.1-9.5,0.2c-0.3,0.3-1.5,0-2.2-0.3c-2.2-0.9-4.5-1.6-6.5-2.8
		c-13.7-7.9-17.2-26.1-8-41c0.7-1.1,1.4-2.2,2.8-4.3c-5.6,1.7-10,2.9-14.4,4.4c-0.9,0.3-1.8,1.5-2.2,2.5
		c-8.5,23.5,5.7,48.4,30.4,52.3c9.1,1.4,18.6,1.1,28,0.9c4.4-0.1,8.7-1.8,13.1-2.8c2.1-0.5,2.9-1.8,2.8-4
		c-0.1-5.3-0.1-10.5-0.1-15.8C476.9,650,476.9,645.3,476.9,640.1z M113.2,641.1c0,9.2,0.2,18.4-0.1,27.6c-0.1,4,1.5,5.7,5,6.6
		c15.6,4.2,31.2,3.7,46.3-1.2c18.3-6,28.2-25.5,23.8-44.2c-1.9-8.1-8.1-12.3-16.7-11.4c1.4,2.7,3,5.3,4.2,8
		c7.1,16.2-0.4,33.5-16.8,38.7c-1,0.3-2.8,0.6-3.2,0.1c-1.8-2.2-3.7-1.3-5.7-0.7c-2.8,0.8-5.6,1.6-8.4,2c-6.7,1-13.4,0.8-19.8-1.8
		c-2.9-1.2-4.4-2.8-2.2-6c1.2-1.8,2.2-3.9,2.7-6.1C123.6,646.7,119.5,641.1,113.2,641.1z M417.9,183.4c-2-4.6-4-8.5-5.3-12.6
		c-4.6-14.8,2.5-29.2,16.9-34.5c1.1-0.4,2.9-0.9,3.3-0.5c2.4,3.2,5,1.2,7.5,0.4c7.1-2.3,14.3-3.3,21.8-2.1c9.2,1.6,10.4,3.6,6.5,12
		c-3,6.4,1.8,14.8,8.3,13.7c0-7.1,0-14.3,0-21.5c0-12.7,0.1-13.1-12.6-14.4c-7.5-0.8-15.2,0.1-22.8,0c-28.9-0.4-47.9,25.7-38.4,52.9
		c0.4,1.1,1.4,2.3,2.4,2.7C409.4,181.1,413.5,182.1,417.9,183.4z M546,604.7c0.7,0.8,1.6,1.7,2.3,2.8c3.5,5.2,7.7,10.2,10.3,15.8
		c10,21.8-4.4,44.8-27.1,43.3c-5.6-0.4-10.9-3.3-16.4-5c-1.2-0.4-2.8-1.2-3.5-0.7c-2.8,1.6-5.2,3.7-8.6,6.2c4.2,2.5,7.5,4.7,11,6.4
		c24.3,12,52.8-1.4,57.8-27.2c3.8-19.5-6.1-34.4-16.1-48.9C552.2,599.9,549.3,602.2,546,604.7z M170.4,183.8
		c5.1-1.5,9.1-2.5,12.8-3.9c1.4-0.5,2.8-1.9,3.3-3.3c8.2-21.2-1.8-43.1-23.7-50.1c-11.7-3.7-24-3.9-36.3-2.8c-3,0.3-5.9,1.5-8.8,2.2
		c-3.2,0.8-4.4,2.6-4.3,5.9c0.2,8.2,0,16.3,0,24.5c0,1.1,0.2,2.3,0.3,3.4c8-0.4,11.3-8.7,6.9-16.1c-2.9-4.8-2.2-6.8,3.3-8.5
		c7-2.2,14-1.6,21.1-0.4c4,0.6,8,4,12.3,0.7c0.3-0.2,1,0.2,1.5,0.3c10.7,2.8,19,13.2,19.6,24.2C178.9,168.5,175.9,176,170.4,183.8z
		 M86.9,667c-1.4-1.1-2.6-1.8-3.7-2.8c-3.4-3-6.3-3.2-10.7-1c-11.4,5.9-23.2,5.5-33.4-2.8c-10.3-8.5-12.2-19.9-8.7-32.3
		c2.2-7.8,6.7-14.3,12.1-20.2c1-1.1,2-2.3,2.8-3.1c-3.4-2.5-6.4-4.7-9.7-7.1c-7,9.8-14.4,19.6-16.8,32c-1.9,10.1-0.6,20,4.7,29.1
		C36.2,680.1,66.9,684.3,86.9,667z M86.6,133.8c-0.5-0.6-0.9-1.2-1.4-1.5c-13.8-10-28.6-12.8-44.3-5.5c-15.4,7.3-22.4,20.2-22.4,37
		c0,15.5,8.8,27.2,17.1,39.1c0.1,0.1,0.5,0-0.1,0c3.3-2.6,6.2-4.8,9.4-7.2c-0.6-0.7-1.6-1.7-2.4-2.9c-3.3-4.9-7.1-9.6-9.7-14.8
		c-6.3-12.8-4.3-26.7,4.6-35.7c9-9.1,22.4-11.7,34.7-5.3c5.6,2.9,9.1,2.1,13-1.9C85.5,134.8,86,134.4,86.6,133.8z M503.9,133.9
		c6.2,6.3,7.2,6.5,14.4,3.1c21.1-10,43.8,4,43.1,26.8c-0.3,10.6-5.5,19.1-12,26.9c-1.5,1.8-3,3.5-4.2,5c3.3,2.4,6.3,4.4,9.5,6.8
		c7.3-10,15-20,17-33c2.7-18-5.2-34.1-20.8-42C535.9,119.7,515.3,122.5,503.9,133.9z M322.6,546.4c1.4-3.4,2.6-5.8,3.3-8.4
		c0.4-1.6,0.3-3.8-0.5-5c-10.1-13.2-18.4-27.3-23.8-43c-1-3-3.3-4.8-6.5-4.8c-3.4-0.1-5.8,1.5-6.9,4.8
		c-5.6,15.8-14.3,29.9-24.3,43.2c-0.8,1-1.4,2.7-1.1,3.9c0.7,2.9,2,5.6,3.2,8.8c0.9-1,1.5-1.5,1.9-2.1c5.2-7.3,10.3-14.6,15.7-21.8
		c5.6-7.5,16.8-7.4,22.4,0.2c1.2,1.7,2.3,3.5,3.5,5.2C313.7,533.4,317.9,539.5,322.6,546.4z M266.9,254.9c-5.1,8.5-5.1,9-0.1,16.1
		c0.9,1.3,1.7,2.6,2.7,3.9c8.1,11.2,13.9,23.6,19.1,36.3c1.8,4.4,6.5,5.9,10,3.4c1.6-1.1,2.9-3.2,3.5-5.1
		c5.4-15.5,13.8-29.2,23.5-42.4c0.7-1,1.1-2.7,0.8-3.9c-0.8-2.7-2.1-5.3-3.4-8.5c-1.1,1.4-1.9,2.4-2.6,3.4c-4.5,6.5-9,13-13.5,19.5
		c-6.5,9.1-17.6,9-24-0.1c-2.9-4.1-5.6-8.3-8.5-12.4C272,261.8,269.5,258.5,266.9,254.9z M361,443.9c-0.3,0.3-0.6,0.6-0.9,0.9
		c2.2,3.2,4.5,6.4,6.6,9.7c3.5,5.4,6.7,10.9,5.8,17.6c-2,14.2-4.3,28.4-6.5,42.6c-0.3,2.1-0.9,4.2-1.6,7.1
		c10.3-7.1,13.4-17.2,16-28.6c3.9,7.8,3.6,16.1,8.9,22.5c0.4-0.9,0.7-1.3,0.8-1.6c0.2-0.9,0.4-1.8,0.6-2.7
		c2.3-10.8,2.1-21.6-0.5-32.2c-2.8-11.5,0.5-21,7-30c1.6-2.2,3.3-4.3,4.9-6.5c-10.2,2-15.9,9.5-21.8,17.1
		C375.1,452.6,369.1,446.9,361,443.9z M224.6,521.1c-0.6-2.5-1.3-5-1.7-7.6c-1.9-12-3.3-24-5.7-35.9c-1.7-8.4-0.3-15.6,4.4-22.5
		c1.7-2.5,3.5-5,5.1-7.5c0.7-1.1,1.3-2.4,2-3.6c-9,2.5-15.2,8.3-20.3,15.9c-5.8-8.3-12-15.3-21.8-17.8c0.7,1.5,1.6,2.7,2.5,3.9
		c8.4,10.3,13.5,21.4,9.1,35c-0.3,1-0.4,2.1-0.5,3.1c-1.7,10.5-1.3,20.9,1.8,32c5.3-7,5.4-15.2,8.6-22.4
		C211.2,504.4,214.7,514.4,224.6,521.1z M364.2,278.4c0.8,3.5,1.4,5.9,1.8,8.3c1.7,11.6,2.5,23.4,5.1,34.8c2.2,9.7,0,17.6-5.1,25.4
		c-1.9,2.8-3.7,5.6-5.5,8.5c9.2-1.8,14.6-8.4,20-15c13.5,14.8,16.4,17,21.6,16.6c-0.9-1.1-1.7-2.1-2.5-3.1c-8-10-12.5-20.7-9.2-34.1
		c1.6-6.3,1.6-13.1,1.6-19.6c0-5.1-1.2-10.2-1.9-15.3c-0.4,0-0.8,0-1.3,0c-4.9,6.5-4.8,14.9-8.2,22.3
		C377.9,296.4,375,285.8,364.2,278.4z M224.6,278c-9.7,7.8-13.8,17.8-16.2,29c-3.6-7.3-2.9-16-8.7-22.9c-3.4,12.9-3.6,24.8-0.9,36.7
		c1.7,7.9,1.8,15.5-2.6,22.6c-2.4,3.8-4.9,7.5-7.4,11.2c-0.6,0.9-1.2,1.8-2.2,3.4c10.1-3.4,16.3-10.1,21.7-17.7
		c10.3,11.5,14.4,14.7,20.7,15.9c-0.9-1.6-1.5-2.8-2.2-3.9c-2.1-3.2-4.3-6.3-6.3-9.6c-3.7-6.2-4.8-12.7-3.3-20.1
		C219.9,308.1,222,293.5,224.6,278z M458.2,428.1c-1.1-1.8-1.7-3.1-2.5-4.3c-9.1-13.9-17.9-28-23.1-44c-0.3-1-0.6-2.3-1.4-2.8
		c-1.9-1.4-3.9-3.2-6-3.6c-4.1-0.7-6.2,2.2-7.3,5.7c-4.5,15-12.7,28-21.5,40.8c-2,2.9-4,5.8-6.4,9.4c3-0.2,5.2-0.6,7.3-0.4
		c3.5,0.4,5.6-1.2,7.3-4c2.7-4.4,5.7-8.5,8.5-12.9c6.4-9.8,17.9-9.8,24.2,0.2c3,4.7,5.8,9.4,8.8,14.1c0.6,1,1.9,2.1,2.9,2.2
		C451.8,428.7,454.7,428.3,458.2,428.1z M307.2,574.2c1.3-0.7,2.6-1.5,3.8-2.1c6.2-3,12.1-6.4,18.5-8.8c10-3.7,16.2-0.8,21,8.7
		c2.5,4.9,4.9,9.9,7.6,14.7c2.5,4.4,10.1,7.3,14,6.3c-7.8-15.6-15.7-31.3-23.4-47.1c-2-4.1-3-8.8-5.3-12.7c-1.1-1.9-3.9-3.3-6.2-3.8
		c-2.8-0.7-5,1.2-6.1,3.9c-1.3,3-2.7,6-3.6,9.2c-2.6,9.3-7.8,16.3-16.8,20.2c-1.2,0.5-2.3,1.3-3.3,2.2c-0.6,0.6-1.2,1.7-1.1,2.6
		C306.3,569.5,306.8,571.7,307.2,574.2z M339.2,434.6c-3.9-1.4-4.8,0.3-5.5,3.3c-2.3,9.3-5.2,18.5-7.6,27.8
		c-2.3,9.2-7.8,15.3-16,19.9c-7.1,3.9-6.2,2.8-2.9,10.2c0.1,0.2,0.4,0.3,0.9,0.6c6.1-3.3,12.3-6.7,18.6-10c6-3.2,12.3-3.9,18.6-0.9
		c3.1,1.5,6,3.3,8.9,5c3.7,2.1,7.5,4.2,11.3,6.4c2.6-8.1,2.6-8.5-4-12.5c-5.4-3.3-9.2-7.6-11.4-13.5
		C345.5,458.9,339.8,447.5,339.2,434.6z M285.8,488.5c-3.9-2.4-7.5-4.8-11.2-6.9c-5-2.7-8.4-6.4-10.3-11.9
		c-3.7-11-7.6-21.9-11.4-32.8c-0.6-1.8-0.8-4.1-3.9-3.1c-0.2,1.7-0.4,3.4-0.5,5c-0.7,10.5-6.1,19.5-9.3,29.3
		c-2.2,6.6-6.2,11.4-12,15c-6.1,3.7-6.3,5.1-3.4,12.6c5.1-3.1,10.2-6,15.1-9.2c7.5-5,15.2-5.5,23.2-1.4c5.6,2.9,11.1,6,16.7,8.9
		c1.2,0.6,2.4,1.3,3.8,2C283.8,493.3,284.7,491,285.8,488.5z M223.9,302.3c-2.7,8.2-2.3,8.6,4.2,12.7c3.4,2.1,7.5,4.5,9,7.8
		c5.6,12.4,11.5,24.9,12.7,38.8c0.1,1.1,0.7,2.1,1.1,3.2c0.4,0,0.8,0,1.2-0.1c0.8-2.4,1.6-4.9,2.4-7.3c3.6-10.9,7-21.8,11-32.5
		c1-2.8,3.7-5.3,6.2-7.2c3.3-2.5,7.3-4.2,10.8-6.4c0.9-0.5,1.8-2.1,1.6-2.9c-0.5-2.1-1.6-4-2.6-6.2c-6.2,3-12,5.8-17.8,8.7
		c-8.5,4.2-16.7,3.8-24.9-0.8C234,307.5,229.1,305,223.9,302.3z M132.7,445.2c10.3,15.6,19.9,31.9,26.7,49.7c1,2.7,3.4,3.9,6.3,3.8
		c3.2-0.1,5.2-1.7,6.3-4.5c5.2-13,10.9-25.7,18.9-37.3c0.5-0.8,0.8-2.4,0.3-3.2c-1.5-2.5-3.4-4.8-5.5-7.6c-3.1,5.3-5.8,10-8.5,14.6
		c-5.6,9.6-17.7,9.6-23.5,0.1c-3.7-6.1-7.3-12.2-10.9-18.3c-0.7-1.2-1.5-2.3-2-3.1C138.1,441.4,135.7,443.1,132.7,445.2z
		 M563.6,392.2c0.6-0.7,1-1.1,1.2-1.6c10.5-21.8,10.6-43.5-2.5-64.1c-10.9-17.3-32.6-21.6-50.1-10.9c-1,0.6-1.9,1.5-3.3,2.6
		c5.6,3,9.7,5.9,16.5,3.5c11.3-4,22.8,1.1,28.8,11.6c8.9,15.7,9.4,32,2.9,48.7c-0.5,1.3-0.6,3.4,0.1,4.4
		C558.9,388.4,561.2,390.1,563.6,392.2z M337.9,659.9c-0.7,0.3-1.1,0.5-1.6,0.8c-14.2,8.4-26.2,7.3-38.7-3.5
		c-2.1-1.8-3.3-1.7-5.2,0.2c-7.6,7.4-16.8,10.4-27.2,8.1c-4.8-1.1-9.3-3.4-14.2-5.2c-2.1,2.3-4.4,4.9-7,7.8
		c11.9,8.1,24.3,11.3,38.1,7.9c6.6-1.7,19.3-1.6,25.8-0.1c0.6,0.2,1.3,0.3,1.9,0.4c13,2.6,24.7-0.4,35.8-7.9
		C342.9,665.3,340.4,662.6,337.9,659.9z M295.3,145.7c13.4-13.4,28.1-14.7,43.8-4.9c2.6-2.8,5-5.4,7.4-7.9c-0.5-0.5-0.7-0.9-1-1.1
		c-0.4-0.3-0.8-0.7-1.3-0.9c-14.5-8.6-29.5-10.1-44.9-2.8c-2.9,1.4-5.1,1.4-8.1,0c-3.7-1.7-7.6-3-11.6-3.8
		c-12.7-2.6-24.1,0.8-34.8,8.4c2.6,2.9,5,5.5,7.4,8.2C267.8,130.7,282,132.6,295.3,145.7z M207.7,617.1c-2.2-0.8-4.3-1.7-6.5-2.4
		c-3.8-1.2-7.6-2.3-11.4-3.3c-8-2.1-13.4-6.9-16.3-14.7c-1.2-3.3-2.9-6.5-4.7-9.5c-1.7-3-4.4-4-7.6-3.2c2.2,3.6,4.3,6.7,5.9,10.1
		c0.6,1.2,0.3,3.5-0.5,4.4c-0.7,0.7-2.9,0.4-4.3-0.1c-2.9-0.9-5.8-2.2-8.9-3.4c-1,2.2-1.9,3.8-2.5,5.6c-2.9,9.1-9.6,13.8-18.4,16.1
		c-2.4,0.6-4.9,1.2-7.3,1.7c-11.7,2.5-9.9,3.3-10.8,11.6c-0.1,1.3,0.8,3.8,1.1,3.8c1.9-0.2,4.3-0.3,5.6-1.5c1-0.9,0.9-3.4,0.8-5.1
		c-0.1-1.3-0.8-2.6-1.3-4.1c0.8,0,1.3-0.1,1.6,0c11.4,3.6,21.5,0.5,31.1-5.8c5.3-3.5,11.1-4.1,17.1-2.8c5,1.1,9.9,2.7,14.8,4.2
		C192.5,621,200,621,207.7,617.1z M357.8,353.4c1.8-2.3,3-4.3,4.6-6.1c1.5-1.7,1.3-3.1,0.1-4.9c-7.7-11.4-14-23.5-18.5-36.6
		c-1.2-3.5-3.2-6.1-7.4-6c-4.3,0-6.3,2.8-7.5,6.4c-4.3,12.2-9.6,23.9-17.4,34.4c-0.6,0.8-0.8,2.6-0.3,3.5c1.4,2.4,3.2,4.6,5.2,7.3
		c3-4.9,5.5-9.2,8.2-13.5c5.9-9.3,17.9-9.2,23.7,0.1C351.5,343,354.5,348,357.8,353.4z M102.4,138.6c-1.9,9.7-5.2,19.1-2.8,29.2
		c2.4,9.7,5.9,18.9,12.4,26.9c0.6-5.1,1.2-10.1,0.5-14.9c-2.6-16.9-2.1-33.9-2.1-50.9c0-1.3-0.1-2.5-0.2-4.3c-1.7,0.6-3,0.8-4,1.5
		c-9.2,5.9-18.4,11.7-27.3,18c-4.3,3.1-5,8.2-2.8,12.4c1.8,3.5,5.6,5.4,9.6,4.7c4.7-0.7,7.9-4.3,8.4-9.6
		C94.5,145.9,97.9,142.1,102.4,138.6z M109.4,675.7c1.1-23.5,2.1-46.4,3.2-69.4c-0.5-0.2-0.9-0.5-1.4-0.7c-0.4,0.7-0.6,1.5-1.1,2.1
		c-9.9,14.6-14.6,30.2-8.8,47.8c0.7,2.1,0.9,4.3,1.4,6.4c-5.1-3.4-8.1-7.6-8.8-13.3c-0.7-5.1-4.1-8.6-8.5-9.2
		c-4-0.6-7.8,1.4-9.5,4.9c-2.1,4.1-1.2,9.3,2.7,12.5C87.9,664.4,98.1,670.7,109.4,675.7z M480.8,675.8c2.9-1.5,5.7-2.6,8.3-4.2
		c7.5-4.7,15-9.4,22.2-14.4c4.4-3.1,5.5-7.7,3.7-12.2c-1.5-3.8-5.4-6-9.5-5.7c-4.5,0.4-7.7,3.6-8.8,8.8c-0.2,1-0.3,2.1-0.6,3.1
		c-1.4,4.3-3.8,7.9-8.2,10.2c2-9.7,5.1-19,2.9-29.1c-2.2-9.7-5.4-18.8-13-26C478.7,629.2,479.7,652.1,480.8,675.8z M487,139.3
		c0.6-0.1,1.2-0.2,1.9-0.3c1.1,1.2,2.7,2.3,3.3,3.7c1.7,3.8,3.1,7.7,4.5,11.7c1.4,3.9,4.6,6.7,8.7,7c4.1,0.3,7.2-1.3,9.1-4.9
		c1.9-3.7,1.5-7.8-1.4-11c-1.1-1.3-2.4-2.4-3.8-3.4c-5-3.5-9.9-7-15.1-10.2c-4.3-2.6-9-4.8-13.4-7.1c-1.1,23.7-2.2,46.7-3.4,69.7
		c0.4,0.1,0.8,0.3,1.2,0.4c1.8-3,3.8-5.8,5.5-8.9C492,171,493.7,155.5,487,139.3z M118,180c0,0.4,0,0.9-0.1,1.3
		c2.5,0.5,5,0.9,7.5,1.4c9.1,1.9,18.2,3.9,23.4,12.9c0.4,0.7,2.7,0.8,3.9,0.5c3.2-0.9,5.8-0.9,8,2.2c2.9,4.3-0.4,6.5-2.6,9.1
		c-3.1,3.6-2.3,7.4,2,9.4c3.5,1.7,7.3,0.4,9.3-3.5c2.1-4,3.8-8.1,5.6-12.2c2.2-5,5.9-8.4,11.1-9.9c4.3-1.3,8.6-2.5,12.9-3.8
		c3.1-1,6.1-2.1,9.1-3.2c-0.1-0.4-0.1-0.8-0.2-1.2c-6-2.4-12.3-3.2-18.7-1.7c-4.6,1.1-9.1,2.6-13.7,4c-8.5,2.5-16.5,2.1-24.4-2.6
		c-4.6-2.7-9.8-4.7-15-6C129.8,175,123.6,176.7,118,180z M439.7,601.7c-1.6,0.5-2.7,0.9-3.8,1.1c-3,0.7-5.5,0-7.2-2.7
		c-1.7-2.7-1.1-5.3,0.8-7.7c0.7-0.9,1.6-1.7,2.5-2.5c1.7-1.5,1.4-2.9,0-4.3c-3.1-3.2-8.7-2.4-11.1,1.9c-1.7,3.1-3.1,6.4-4.5,9.7
		c-3,7.6-8.5,12.1-16.4,14.1c-4.6,1.2-9.2,2.4-13.7,3.7c-1.6,0.5-3.1,1.3-5.4,2.4c6.5,2.6,12.1,3.7,17.8,2.5
		c5.9-1.3,11.7-3.2,17.5-4.9c7.9-2.2,15.2-1.6,22.4,2.7c4.2,2.5,9,4.5,13.7,6c6.9,2.2,13.6,0.6,21.1-3.4
		C459.8,616.9,445.5,616.9,439.7,601.7z M399.7,524.4c9.1,9,13,19.9,15.8,31.4c0.3,1.1,0.8,2.2,1.3,3.3c1.8,3.8,2.9,8.2,8.3,8.3
		c5.6,0,6.7-4.4,8.1-8.3c5.1-14.3,12.7-27.2,21.1-39.7c0.7-1,1.3-2.1,1.7-2.8c-2.8-1.9-5.3-3.5-8.2-5.4c-3.7,6-7.6,12-11.3,18.2
		c-2.9,4.9-7.1,7.2-12.8,7.1c-5.6-0.1-9.3-2.9-11.9-7.7C408.9,523.6,405.4,522.4,399.7,524.4z M471.7,181.1
		c-6.7-4.9-13.9-6.2-21.4-3.6c-4.4,1.6-8.7,3.7-12.9,6c-5.6,3.1-11.4,4.3-17.5,3.1c-4.6-0.9-9.1-2.6-13.8-3.5
		c-4.9-1-9.8-1.8-14.8-1.9c-3.1-0.1-6.3,1.3-9.5,2c0,0.4,0.1,0.9,0.1,1.3c1.7,0.6,3.4,1.3,5.1,1.8c4.7,1.4,9.4,2.7,14.1,3.9
		c7.1,1.7,11.8,5.9,14.5,12.7c1.4,3.7,3,7.3,4.9,10.8c1.7,3.2,4.5,4.3,7.8,3.6c-1.7-3.7-3.8-6.9-4.6-10.3c-1-4.3,1.1-5.6,5.2-4
		c2.3,0.9,4.5,2,7.1,3.1c0.9-2,1.8-3.6,2.3-5.3c2.8-9.5,10-14.2,18.9-16.7c2.8-0.8,5.7-1.2,8.5-1.8
		C467.8,182.1,469.8,181.6,471.7,181.1z M85.7,470.5c-8.9-3.5-12.6-9.4-13.1-17c-0.3-4.6,0.7-9.4,1.7-14c1-4.7,4.1-7.6,9.3-7.3
		c9.7,0.6,18.7-1.9,27.6-5.6c3.7-1.6,7.6-1.9,11.4,0.4c3.2,1.9,5.6,0.8,7.7-2.2c3.6-5.2,3.7-5.1-0.2-9.7c-0.3-0.4-0.7-0.8-1-1.2
		c-8.7-10.4-11.8-10.5-20.3,0.3c-6.7,8.4-14.5,14.3-25.6,15.5c-5.3,0.6-9.9,2.7-13.5,7.3c-9.4,12.1-8.2,32.2,3.5,45.3
		C77.2,478.5,81.1,474.8,85.7,470.5z M35,314.6c-6.1-10-8.1-20.4-6-31.4c2.6-14,10.4-22.7,22.6-24.1c4.7-0.6,9.6,0.5,15.1,0.8
		c1.1-2.1,2.5-5,4-8c-8.1-3.8-15.9-4.7-23.9-2.4c-14,4-22.8,13.5-27.1,27c-5.3,16.3-1.7,31.3,7.3,45.8
		C29.7,319.5,32.3,317.1,35,314.6z M511.4,454.5c1.8,1.6,3.5,3,5.1,4.5c1.7,1.6,3,1.3,4.7-0.3c14.3-13.5,15.7-37.1,3.1-52.9
		c-11.3-14.2-36.8-17.7-52.7-6.8c1.6,0.6,2.8,1.4,4.1,1.6c7.1,1.1,14.3,2.5,21.4,3c14.7,0.9,24.2,10,25,24.7
		C522.7,438.6,519.1,447.2,511.4,454.5z M503.4,469.9c-1.3,5.4-3.3,10.3-3.3,15.2c0,2.5,3.6,5.1,5.7,7.5c1.3,1.6,2.9,3.1,4.2,4.7
		c4.5,5.4,6.7,11.7,6.3,18.6c-0.6,9-3.5,16.6-13.1,20c-5.8,2.1-8.1,8.4-5.6,13.6c2.3,4.7,8.4,6.7,13.2,3.8c1.9-1.2,3.7-3.1,4.8-5.1
		c3-5.6,5.8-11.2,8.1-17.1c4.5-11.5,3.2-22.5-3.8-32.7c-2.3-3.3-5.3-6.3-7.3-9.8c-1.5-2.6-2.8-5.8-2.6-8.7
		C510.3,473.7,510.7,473.7,503.4,469.9z M333.6,637.3c0.1,1.4,0.1,3.1,0.4,4.7c2.5,13.5,10,23.3,22,29.7c11.3,6,23.5,7.4,36.1,5.9
		c7.4-0.9,14.7-2.6,21.6-6.1c-1.9-2-3.8-3.5-5.2-5.4c-1.8-2.4-3.6-2.8-6.4-1.8c-8.3,2.9-17,3.6-25.7,2.4
		c-14.2-1.9-25.9-7.4-30.9-22.1c-2.7-8-2.7-8-11.1-7.9C334.2,636.9,334.1,637,333.6,637.3z M498.6,309.1c-0.1-0.3-0.1,0,0.1,0.2
		c8.6,9,6.5,8.3,14,0.6c19.7-20.3,14.2-40.7,1-61c-2.4-3.7-7.5-4.5-11.4-2.8c-3.9,1.7-6.3,6.1-5.5,10.4c0.9,4.6,4.2,7,8.4,8.6
		c2,0.7,4,2,5.3,3.6c5.9,7.5,6.4,17.7,0.8,25.8C507.7,299.7,503.1,304.1,498.6,309.1z M414.2,129.5c-1.7-0.8-2.8-1.4-4-1.9
		c-12.6-5-25.7-6.1-38.9-3.4c-18.9,3.9-31.8,14.7-36.6,33.9c-0.5,1.8-0.3,3.7-0.5,5.7c3.8-0.2,6.9-0.4,10.1-0.5
		c0.2-0.6,0.4-1.1,0.5-1.6c2.6-14.4,11.5-22.6,25.2-26.3c11.1-3,22.2-2.3,33.2,1c1.2,0.4,3,0.5,3.9-0.2
		C409.5,134.5,411.5,132.2,414.2,129.5z M176.1,129.3c2.6,2.7,4.2,4.1,5.5,5.8c1.7,2.3,3.5,2.4,6.1,1.5c8.6-3.1,17.5-3.7,26.5-2.5
		c16.2,2.3,28.5,9.3,31.9,26.9c0.2,0.9,1.4,2,2.2,2.1c2.7,0.4,5.4,0.5,8.5,0.7c-1.2-16.1-8.9-27.5-22.6-34.7
		c-12-6.3-25-7.5-38.1-5.3C189.5,124.8,183.3,127.3,176.1,129.3z M176,671.3c2.1,1,3.5,1.8,5.1,2.4c12.4,4.7,25.1,5.7,38.1,3
		c15.8-3.3,27.9-11.6,34-27c1.5-3.9,1.9-8.2,3-12.8c-2.5,0.3-3.8,0.7-5.1,0.5c-4.3-0.6-5.9,1.4-6.8,5.4c-2.4,11.4-10.2,18-20.9,21.6
		c-11.9,3.9-23.8,3.7-35.8,0.2c-1.4-0.4-3.4-0.8-4.3-0.1C180.7,666.3,178.6,668.7,176,671.3z M88.7,488.7c-5.1,1.8-9.4,3.4-13.7,5
		c-0.9,0.4-2,0.8-2.6,1.6c-6.1,8.2-10.1,17.1-8.4,27.6c1.5,9.7,5.6,18.4,10.6,26.7c2.8,4.6,7.4,6.3,11.8,5c3.8-1.1,6.5-4.7,6.6-8.9
		c0.1-4.5-3-8.4-7.9-10.2c-1.9-0.7-3.8-1.9-5.1-3.3c-7.8-8.7-7.2-21.4,1.5-29.4c3.5-3.3,7.7-5.9,11.8-9
		C91.6,491.8,89.9,490,88.7,488.7z M412.3,385.8c1.1-2.8,1.6-5,2.7-7c1.5-2.7,0.5-4.6-1.3-6.7c-11.6-14-26.6-18.7-44.2-15.9
		c-2.1,0.3-4.7,2-5.9,3.8c-4.6,6.9-8.9,14-13.2,21.1c-3,5-2.4,9.2,2,13.8c5.4-8.1,10.7-16.3,16.4-24.2c1.3-1.8,4.1-3.3,6.4-3.7
		c11.4-2,21,1.5,28.9,10C406.7,379.7,409.3,382.5,412.3,385.8z M94.1,310.7c-3.5-2.6-7-5.3-10.6-7.9c-14.3-10.5-12.5-31.4,3.3-38.5
		c4.1-1.9,6.4-5.5,6.2-9.7c-0.3-4-2.9-7.4-6.6-8.5c-4.1-1.3-9,0-11,4.1c-4.1,8.2-8.8,16.4-11.1,25.2
		C59.5,293.8,75.1,312.6,94.1,310.7z M177.3,384.4c3.2-3.5,5.8-6.8,8.8-9.7c7.2-7.1,15.9-10.4,26-8.4c2.3,0.5,5,1.9,6.4,3.7
		c4.7,6.2,8.8,12.8,13.1,19.3c1.4,2,2.8,4,4.7,6.6c1-2.6,1.5-4.5,2.5-6.2c1.9-3.2,1.2-5.8-0.8-8.6c-3.2-4.7-6.7-9.3-9-14.4
		c-3.7-8.1-9.6-11-18.2-11.5c-15.7-0.8-27,6.2-36.4,17.7c-0.6,0.8-1,2.3-0.7,3.1C174.6,378.8,176,381.3,177.3,384.4z M548.2,533
		c0.1,0.2,0.3,0.6,0.5,0.9c15.3,17.3,17.4,36.5,8.5,57.4c-0.3,0.8-0.8,2-0.4,2.6c1.7,3,3.6,5.9,5.5,9c16.6-19.1,13.1-60.7-5.9-77.5
		C553.8,527.8,551.1,530.2,548.2,533z M150,480.5c-1.1,1.2-1.9,2.3-2.8,3.2c-6,5.9-10.1,5.7-15.4-0.8c-0.3-0.4-0.7-0.8-1-1.2
		c-5.9-7.2-10.1-7.4-16.6-0.9c-7.2,7.3-10.1,7.4-17.3,0.3c-0.2-0.2-0.5-0.2-1.1-0.4c-1.5,1.7-3.1,3.5-4.8,5.3c0.7,0.9,1,1.5,1.4,1.9
		c0.9,1,1.8,1.9,2.8,2.8c7.5,6.7,15.6,9.5,25.3,4.8c1-0.5,3,0.1,4.2,0.7c4.6,2.5,9.7,3.9,14.4,1.4c4.1-2.2,7.4-5.7,11-8.7
		C152.8,486.4,152.9,483.7,150,480.5z M26.4,536.7c1.4-1.9,2.7-3.9,4.2-5.6c2-2.2,2.1-4.1,1-7c-6.8-18.8-3.6-35.7,10-50.5
		c0.7-0.8,1.4-1.7,1.9-2.2c-2.9-2.7-5.6-5.1-8.3-7.6C16.3,480.1,11.1,519.9,26.4,536.7z M28.3,602.9c4.7-4.6,6.1-8.6,3.4-15.5
		c-6.5-16.6-3.4-32.3,8.9-45.8c0.8-0.8,1.5-1.7,1.9-2.2c-3.1-2.7-5.8-5.2-8.6-7.8C15.6,546.6,12.2,588,28.3,602.9z M561.6,198
		c-5.7,5.1-6.3,7.5-3.5,14c6.8,15.6,3.2,34.1-8.9,45.9c-1,1-1.9,2-2.5,2.6c3.2,2.8,5.9,5.2,8.7,7.6
		C574.9,249.6,578.2,212.7,561.6,198z M62.1,489.2c0.1,0.4,0.2,0.7,0.2,1.1c7,1.9,14,1.6,20.4-2.2c8.3-4.9,14.2-12.1,18.6-20.5
		c1.7-3.2,1.8-6.7-0.5-9.7c-2.8-3.5-5.7-7-8.8-10.1c-2.9-3-7.2-3.3-10.5-1.3c-3.3,2-4.8,5.9-3.9,10c1,4.2,3.8,6.4,7.8,7.5
		c4.8,1.3,5.3,2.7,2.7,7c-4.9,7.9-11.8,13.4-20.5,16.5C65.8,487.9,63.9,488.5,62.1,489.2z M291.5,328.5c-5,5.6-10.1,10.9-14.9,16.4
		c-9.9,11.5-9.2,25,1.4,36.3c4.2,4.5,7.9,9.4,11.9,14.1c0.2,0.3,0.6,0.4,1.4,0.8c0.4-2.1,1-4,1.1-5.9c0.6-7.2-2.1-12.9-7.4-17.9
		c-6.5-6.2-6.3-14.3,0.2-20.5c1-1,2.2-1.9,3.2-3C292.8,344.2,294.3,333.1,291.5,328.5z M292.3,473.3c1.8-8.9,0.5-16.1-5.5-22.3
		c-9.9-10.2-8.5-18.5,4-25.5c0.7-0.4,1.6-0.7,2-1.2c1.6-2.5,3.6-4.9,4.6-7.6c0.9-2.4-0.2-4.2-3.4-3.1c-1.6,0.6-3.3,1-4.9,1.5
		c-20.6,6.4-25.8,28.6-10.3,43.6c3.9,3.8,7.4,8.1,11.1,12.2C290.4,471.6,291.1,472.2,292.3,473.3z M298.5,472.3
		c5.5-6.6,11.1-12.6,15.8-19.1c7.8-10.7,6.5-23-2.7-32.8c-4-4.3-7.6-9-11.4-13.6c-0.6-0.7-1.1-1.3-1.7-1.9c-0.3,0.1-0.7,0.3-1,0.4
		c0.6,7.7-0.9,15.8,5.9,22.4c7,6.6,6.9,13.6,0.7,20.9c-1,1.2-2.2,2.3-3,3.6C297,458.3,295.8,464.9,298.5,472.3z M27.4,468.9
		c2-2.6,4-4.7,5.4-7.2c0.7-1.3,0.7-3.3,0.4-4.9c-1.2-5.6-3.2-11.1-4-16.8c-1.3-10.3,1.3-20,6.7-29c-2.8-2.6-5.4-4.9-8-7.3
		C15.3,419,15,452.7,27.4,468.9z M299.4,329.5c-0.3,0.6-1,1.6-1.3,2.6c-2.3,7.6-1.8,14.2,4.5,20.2c7.5,7,7.1,13.9,0.4,21.3
		c-2.6,2.9-4.7,6.7-6.1,10.4c-1.3,3.7-1.2,7.8,0.7,11.1c5-5,9.9-9.8,14.6-14.6c7-7,8.4-16,3.5-24.6
		C310.5,347,304.9,338.4,299.4,329.5z M437.2,460.7c2.9-4.1,5.7-7.4,7.8-11c3.6-6.1,8.5-8.5,15.6-8c9,0.6,17.6-1.5,25.3-6.4
		c3-1.9,5.7-4.3,8.5-6.5c-0.2-0.3-0.4-0.7-0.6-1c-2.2,0.3-4.3,0.8-6.5,1c-12.1,0.9-24.2,1.7-36.2,2.8c-2.4,0.2-5.4,1.1-6.9,2.8
		c-3.7,4.1-6.7,8.8-9.9,13.4c-0.7,1-1.1,2.6-0.8,3.6C434.3,454.2,435.7,457.1,437.2,460.7z M28.1,198c-13,11.8-14,48.6-1.5,60.7
		c1.9-1.6,3.6-3.4,5.7-4.8c1.9-1.3,1.9-2.5,0.9-4.6c-5.7-12.2-6.4-24.6-1.3-37.2C34.3,206.1,33.5,202.7,28.1,198z M92.1,365.8
		c-0.2,0.5-0.3,1-0.5,1.6c9,4.1,14.9,11.6,20.4,19.4c0.9,1.3,2,2.5,3.2,3.5c3.6,3.1,8.3,3.1,11.2-0.6c5.1-6.4,10.4-12.5,18.4-16
		c-1.6-2.3-2.9-4.2-3.7-5.3c-3.4,0.9-5.9,1.7-8.6,2.2c-2.3,0.5-4.9,0.3-6.9,1.2c-4.9,2.2-9.5,1.3-14.1-0.7c-2.9-1.3-5.7-2.7-8.8-3.5
		C99.2,366.6,95.6,366.3,92.1,365.8z M555.7,475.7c0.1,0.6,0.2,1,0.3,1.3c7.3,13.8,7.6,27.9,1.7,42.2c-0.3,0.7-0.6,1.7-0.3,2.2
		c2,3,4.2,5.8,6.4,8.9c13.1-19.2,9.7-50.1-0.7-61.4C560.7,471.2,558.3,473.4,555.7,475.7z M562.8,263.4c-2,2.7-4.1,5.2-5.8,7.9
		c-0.5,0.8-0.5,2.4-0.1,3.3c6.1,12.8,5.1,25.3-1.5,37.5c-0.4,0.8-0.6,2.3-0.1,2.7c2.3,2.3,4.7,4.3,7.2,6.5
		C575.9,302.8,573.7,277.1,562.8,263.4z M453.3,378.7c2.4,2.8,5,5.7,7.3,8.7c4.9,6.4,11.1,6.7,16.6,0.7c2.4-2.6,4.5-5.5,6.8-8.2
		c4.4-5.3,10.1-8.3,17.1-8.7c0.7,0,1.4-0.2,2.8-0.5c-5.2-3.5-10.2-3.4-15.1-2.3c-5,1.1-9.7,3.3-14.6,4.5c-2.4,0.6-5.3,0.9-7.6,0.2
		C458.9,370.7,457.2,371.2,453.3,378.7z M459.7,444.5c-2.5,0.4-4.4,0.4-6.1,0.9c-4.2,1.2-5,4.2-2.2,7.4c2.1,2.5,4,5.2,6.1,7.8
		c4.5,5.7,8.5,6,14.1,1.4c4.2-3.4,8.5-6.6,12.6-10.1c1.6-1.3,2.7-3.2,4-4.8c-1.8-0.8-3.6-1.6-5.5-2.2c-0.7-0.3-1.6-0.1-2.4-0.2
		C473.2,444,466.1,448.9,459.7,444.5z M500.9,602.3c-0.2,3.1-0.6,5.6-0.5,8c0.1,1.1,1,2.8,1.9,3c13.7,3.9,27.5,6.2,41.5,1.6
		c1.8-0.6,3.4-1.5,5.6-2.5c-2-2.3-3.4-4.3-5.2-5.7c-1-0.8-2.9-1.4-4.1-1.1c-8.6,2.2-17.2,1.7-25.8-0.1
		C509.9,604.7,505.6,603.5,500.9,602.3z M42,188.4c0.9,1.1,1.8,1.9,2.4,2.9c2.4,3.4,5.1,4.1,9.4,3.4c5.6-1,11.5-0.9,17.3-0.4
		c6.1,0.5,12.1,2.1,18.4,3.3c0.5-3.3,1-6.5,1.5-9.6C75.4,182.7,52.1,180.8,42,188.4z M42.3,613.2c1.3,0.6,2.6,1.2,3.9,1.7
		c14.2,4.8,28.1,2.6,42-1.5c0.7-0.2,1.6-1.4,1.6-2.1c-0.1-2.9-0.6-5.9-1-9.1c-1.7,0.5-3.1,1-4.5,1.4c-9.7,2.9-19.5,4.5-29.7,2.8
		C48.5,605.4,45.7,606.8,42.3,613.2z M500.3,197.7c1-0.2,1.6-0.2,2.2-0.4c12.1-2.9,24.2-5.3,36.6-2.2c0.8,0.2,2.2-0.2,2.8-0.8
		c2.1-1.9,4-4.1,5.9-6.3c-10.3-7.1-35-5.7-48.8,0.7C499.5,191.5,499.9,194.3,500.3,197.7z M485.3,479.5c-6.5,4.5-10.9,1.2-15.3-2.1
		c-3.1-2.3-6.8-2.8-9.5-0.2c-3,3-5.7,6.8-7,10.7c-0.6,1.9,2.1,5,3.3,7.5c1.4,2.9,3.2,2.6,5.7,1.1c1.7-1.1,3.9-1.9,5.9-1.9
		C476.3,494.4,483.5,488.7,485.3,479.5z M405.4,270.4c0.2,0.2,0.4,0.5,0.6,0.7c1.6-0.8,3.2-1.6,4.9-2.3c11.6-5.1,22.5-4.7,32.4,3.9
		c3.4,2.9,6.8,5.8,10.4,8.6c1.2,1,2.7,1.6,3.7,2.2c-1.8-12.2-9.9-20.1-18.3-28c-8.1,9.4-17.4,9-24.9-1
		C411,260.1,408.2,265.3,405.4,270.4z M494.7,328.2c-1.9,2.9-4.2,5.9-5.9,9.2c-0.6,1.3-0.5,3.6,0.3,4.8c2.5,3.8,5.2,7.6,8.5,10.7
		c4,3.7,10.2,2.7,13.4-1.4c2.9-3.7,2.3-9.5-1.8-12.7C504.8,335.3,500,332.1,494.7,328.2z M380.8,504.4
		c-6.9,15.7-16.4,26.9-34.2,27.3c1.2,7.2,2.4,8,9,6.9c13.2-2.3,22.2-10.4,28.6-21.7c0.5-0.8,0.6-2.1,0.3-2.9
		C383.5,511,382.2,508.1,380.8,504.4z M208.3,504.1c-1.3,3.6-2.5,6.3-3.3,9.2c-0.3,1-0.1,2.4,0.4,3.3c6.1,12,15.5,19.7,29,21.9
		c6,1,7.3-0.2,7.9-6.9C224.4,531.2,215.2,519.6,208.3,504.1z M346.3,268.8c7.9,0.8,15.7,2.1,21.2,7.9c5.1,5.6,9.3,12,13.7,17.8
		c0.6-1.7,1.8-3.9,2.3-6.3c0.4-1.9,0.5-4.3-0.4-5.9c-6.1-10.9-15.1-18-27.6-20.3C348.9,260.9,348.1,261.5,346.3,268.8z M242.9,268.9
		c-1.5-7.4-2.5-8.2-9.4-7c-10.1,1.8-17.7,7.4-24.3,15.1c-5.2,6.1-4.8,11.9-1.4,17.5c4.4-5.9,8.6-12.4,13.7-18.1
		C227,270.3,234.9,269.2,242.9,268.9z M132.3,281.5c6.2-3.9,12.4-7.4,18.2-11.4c8.7-6,18.1-6.3,27.9-4.1c0.8,0.2,1.6,0.3,2.9,0.6
		c-1.9-4.3-3.6-8.1-5.3-12c-11.9,9.7-14.5,9.8-25,0.9C143.4,263,135.2,270.1,132.3,281.5z M528.7,562.3c-0.4-0.6-0.8-1.2-1.1-1.7
		c-13.9,6.7-28.7,8.5-44.6,7.5c1.3,2.7,2.2,4.3,2.8,6.1c1,3.2,3.2,4.1,6.3,4.1c9.4,0,18.4-1.4,26.3-6.7
		C522.2,569,525.3,565.4,528.7,562.3z M106.7,231.2c-1.7-3.3-2.7-5.9-4.2-8.2c-0.5-0.8-1.9-1.5-2.9-1.5
		c-13.6-0.8-25.6,2.5-34.9,13.1c-1.2,1.4-2.1,3-3.2,4.5c0.2,0.4,0.4,0.7,0.7,1.1C75.9,232.8,90.6,230.7,106.7,231.2z M528.8,239.4
		c-1.4-2-2.1-3.1-2.9-4.1c-8.1-9.2-18.6-12.9-30.6-13.2c-7.1-0.2-9.4,1.9-10.7,9.3c7.3,0.6,14.7,0.7,21.9,1.9
		C513.6,234.6,520.6,237.1,528.8,239.4z M62.9,560.5c-0.3,0.4-0.5,0.8-0.8,1.1c1.3,1.6,2.4,3.4,3.8,4.9c9.2,10.1,21.4,12,34.2,12.4
		c0.7,0,1.7-0.4,2-1c1.4-2.6,2.6-5.2,4.2-8.6C90.6,569.5,76.3,566.8,62.9,560.5z M66,619.6c-5.6-0.1-10.1,4.5-10.1,10.4
		c0,5.2,4.6,9.9,9.7,10c5.9,0.1,10.8-4.6,10.8-10.3C76.4,624.2,71.8,619.7,66,619.6z M149.8,168.1c-9.9-4.2-23.9-4.9-33.2-1.6
		c-0.9,0.3-2.3,1.4-2.2,2.1c0.2,2.9,0.8,5.8,1.4,9.4c11.3-7.1,22.1-4.8,33-0.6C149.2,174,149.5,171.1,149.8,168.1z M66.2,181.3
		c5.8,0.1,10.3-4.4,10.2-10.2c-0.1-5.7-4.6-10.1-10.4-10.1c-5.3-0.1-10,4.6-10.1,10.1C55.9,176.7,60.4,181.2,66.2,181.3z M524,619.5
		c-5.6,0.1-10.1,4.9-10,10.5c0.1,5.5,4.7,9.9,10.2,9.8c5.5-0.1,10-4.7,10-10.1C534.3,624,529.7,619.4,524,619.5z M468,285.1
		c5.8-0.1,10.4-4.7,10.3-10.3c-0.2-5.6-4.9-10.1-10.7-10c-5.6,0.1-9.8,4.6-9.8,10.3C457.9,280.6,462.5,285.1,468,285.1z
		 M533.9,171.3c0.1-5.6-4.3-10.1-9.8-10.2c-5.9-0.2-10.4,4.2-10.4,10c0,5.9,4.3,10.2,10.3,10.2C529.5,181.3,533.8,177,533.9,171.3z
		 M467.4,514.5c-5.6,0.1-9.9,4.6-9.8,10.2c0.1,5.8,4.7,10.3,10.4,10.2c5.6-0.1,9.9-4.6,9.8-10.2
		C477.8,518.9,473.1,514.4,467.4,514.5z M542.6,199.2c-5.7-0.1-10.3,4.2-10.3,9.7c0,5.7,4.3,10.2,9.8,10.3c6,0.1,10.3-3.8,10.5-9.5
		C552.8,203.9,548.4,199.2,542.6,199.2z M381,590.5c5.5,0,10.2-4.5,10.2-9.9c0-5.7-4.2-10.1-9.8-10.2c-5.8-0.1-10.4,4.3-10.4,10
		C370.9,585.9,375.5,590.5,381,590.5z M208.1,589.9c5.5,0,9.9-4.7,9.8-10.3c-0.1-5.5-4.6-9.9-10.2-9.9c-5.5,0-10,4.5-10,10.1
		C197.6,585.4,202.4,590,208.1,589.9z M121.5,534.9c5.6-0.1,10.2-4.6,10.2-10c0-5.8-4.6-10.2-10.4-10.1c-5.5,0.1-10.1,4.7-10,10.2
		C111.4,530.4,116.1,535,121.5,534.9z M172,173.9c0.1-5.6-4.5-10.4-10.2-10.4c-5.4,0-10,4.5-10.1,10.1c-0.1,5.6,4.3,10,10,10.1
		C167.3,183.7,172,179.3,172,173.9z M304.9,629.5c0.1-5.4-4.5-9.9-10.1-9.9c-5.6,0-10.1,4.3-10.1,9.9c-0.1,5.5,4.4,10.1,9.9,10.2
		C300.1,639.7,304.8,635.1,304.9,629.5z M261.5,495.2c-0.1-5.5-4.6-9.8-10.2-9.8c-5.5,0-9.9,4.6-9.9,10.1c0,5.5,4.5,10,10,10
		C257.1,505.6,261.6,501,261.5,495.2z M241.6,300.4c0,5.6,4.4,10.1,10,10.2c5.5,0.1,10-4.4,10-10c0-5.7-4.3-10.1-9.9-10.2
		C246.2,290.3,241.7,294.8,241.6,300.4z M236.9,612.8c5.6,0.1,10.5-4.7,10.5-10.2c0-5.5-4.5-10-10.1-10c-5.8-0.1-10.1,4.3-10.1,10.3
		C227.2,608.2,231.7,612.8,236.9,612.8z M58.3,209.3c0.1-5.6-4.5-10-10.4-10.1c-5.4-0.1-9.6,4.1-9.7,9.7c-0.1,5.9,3.9,10.2,9.6,10.3
		C53.6,219.3,58.3,215,58.3,209.3z M208.5,551.4c5.3,0,10.1-4.8,10-10.1c0-5.3-4.8-10.2-10-10.1c-5.6,0-10.3,4.8-10.2,10.4
		C198.4,547.1,202.9,551.5,208.5,551.4z M362.5,198.3c0-5.5-4.5-10.1-10-10.1c-5.5,0-10.2,4.8-10.2,10.4c0,5.2,4.5,9.7,9.8,9.8
		C357.9,208.6,362.4,204.2,362.5,198.3z M542.3,443.7c-5.8,0-10.1,4.5-10,10.4c0.1,5.8,4.3,9.8,10.2,9.7c5.7-0.1,9.9-4.4,9.9-10.1
		C552.2,447.9,548,443.7,542.3,443.7z M48.4,345.8c5.8,0.1,10.2-4.1,10.3-9.6c0.1-5.8-4.3-10.3-10.1-10.4c-5.4-0.1-10,4.1-10.1,9.4
		C38.4,341.1,42.8,345.8,48.4,345.8z M208.8,269.3c5.1,0.1,9.5-4.4,9.6-10c0.2-5.6-4.2-10.1-9.7-10.2c-5.7-0.1-10.3,4.4-10.4,10.1
		C198.3,264.7,203,269.2,208.8,269.3z M380.4,249.4c-5.6,0-9.9,4.4-9.8,10.1c0,5.5,4.7,10.1,10,10c5.6-0.1,10.1-4.6,10.1-10
		C390.7,253.8,386.2,249.4,380.4,249.4z M247.7,198.5c0-5.4-4.6-10.1-10.1-10.1c-5.6-0.1-10.1,4.6-10.2,10.4c0,5.3,4.4,9.6,9.9,9.6
		C242.9,208.4,247.7,203.8,247.7,198.5z M541.8,416.9c5.7,0.1,10.2-4.2,10.3-9.8c0.1-5.7-4.2-10.2-9.7-10.3c-5.8-0.1-10,4-10.2,9.8
		C532,412.4,536.1,416.8,541.8,416.9z M122.8,353.4c5.5,0,10.4-4.6,10.4-9.8c0.1-5.6-4.5-10.2-10.3-10.2c-5.5,0-10.1,4.5-10.1,9.9
		C112.8,348.9,117.2,353.4,122.8,353.4z M362,144.1c-5.3-0.1-9.8,4.2-10,9.6c-0.2,5.7,4,10.3,9.5,10.5c5.7,0.2,10.4-4.3,10.5-10
		C372,148.6,367.6,144.2,362,144.1z M131.4,274.8c0-5.8-4.6-10.1-10.5-10c-5.5,0.1-9.8,4.6-9.7,10.3c0,5.4,4.4,9.7,9.8,9.8
		C126.9,284.9,131.5,280.5,131.4,274.8z M390.7,541.6c-0.1-5.6-4.9-10.2-10.5-10.1c-5.4,0.1-9.8,4.8-9.7,10.4
		c0.1,5.5,4.8,10,10.3,9.9C386.2,551.7,390.8,547,390.7,541.6z M48.2,468.5c5.9-0.1,10.1-4.3,10-10c-0.1-5.8-4.3-10.1-10-10
		c-5.9,0.1-10.1,4.4-10,10.4C38.3,464.5,42.6,468.6,48.2,468.5z M238.8,153.4c-0.1-5.8-4.4-10-10-10c-5.5,0.1-9.9,4.6-9.9,10.2
		c0,5.6,4.8,10.1,10.6,9.9C234.9,163.4,238.9,159.1,238.8,153.4z M56.7,274.2c0-5.5-4.4-10-10-10.1c-5.6-0.1-10.2,4.5-10.1,10.3
		c0,5.5,4.2,9.7,9.7,9.8C52.1,284.4,56.7,279.9,56.7,274.2z M433.5,490.9c0-5.5-4.3-9.8-9.8-9.9c-5.7,0-10.3,4.7-10.3,10.3
		c0.1,5.5,4.3,9.8,9.8,9.8C429,501.2,433.5,496.7,433.5,490.9z M238,647.4c0.1-5.7-3.9-10-9.4-10.1c-5.8-0.1-10.5,4.3-10.6,9.9
		c-0.1,5.7,4.4,10.1,10.4,10.1C233.8,657.2,237.9,653,238,647.4z M208.4,369.3c-5.8,0.1-10.2,4.3-10.1,9.9c0,5.6,4.8,10.3,10.4,10.2
		c5.5-0.1,9.7-4.7,9.6-10.4C218.3,373.4,214,369.3,208.4,369.3z M346.7,344.2c0.1-5.2-4.4-9.7-9.8-9.8c-5.5-0.2-10,3.9-10.2,9.3
		c-0.2,5.8,4.3,10.7,9.7,10.8C342.1,354.5,346.6,350,346.7,344.2z M428.1,183.7c5.5-0.1,9.8-4.3,9.8-9.8c0-5.7-4.6-10.2-10.3-10.2
		c-5.5,0-9.9,4.5-9.7,10.2C417.9,179.6,422.3,183.8,428.1,183.7z M133.6,205c-0.1-5.7-4.5-9.9-10.2-9.7c-5.7,0.2-10,4.8-9.8,10.7
		c0.2,5.4,4.6,9.4,10.2,9.3C129.3,215.2,133.7,210.6,133.6,205z M543.7,509.7c-5.5,0.1-9.8,4.8-9.6,10.4c0.2,5.7,4.5,9.9,10.2,9.7
		c5.7-0.2,9.7-4.5,9.6-10.3C553.7,513.7,549.4,509.6,543.7,509.7z M436.8,249.7c0.1-5.9-4.2-10.3-10.1-10.3c-5.5,0-9.9,4.2-9.9,9.6
		c0,5.9,4.3,10.4,10.1,10.4C432.2,259.4,436.7,255,436.8,249.7z M552.9,273.8c0.1-5.5-4.4-9.9-10.1-9.9c-5.8,0-10.1,4.2-10.1,9.8
		c0,5.6,4.4,10,10.1,10C548.4,283.8,552.8,279.5,552.9,273.8z M251.4,585.1c5.7,0,10.1-4.6,10.2-10.4c0-5.1-4.7-9.6-10.1-9.6
		c-5.6,0-10.2,4.4-10.1,9.9C241.4,580.7,245.9,585.1,251.4,585.1z M160.2,140.3c-5.4-0.1-10,4.2-10.1,9.5
		c-0.1,5.6,4.6,10.5,10.1,10.5c5.5,0,10.2-4.6,10.2-10C170.3,144.8,165.8,140.4,160.2,140.3z M369.8,379.5
		c-0.1,5.6,4.3,10.3,9.7,10.4c5.4,0.1,10.4-4.8,10.4-10.3c0-5.5-4.2-9.7-9.8-9.8C374.2,369.9,369.8,373.9,369.8,379.5z M56.6,526.6
		c0.1-5.6-4.1-10.1-9.7-10.3c-5.8-0.2-10.2,3.9-10.3,9.6c-0.1,5.8,4.3,10.4,10,10.4C52,536.3,56.5,532,56.6,526.6z M543.2,601.3
		c5.5-0.1,9.8-4.4,9.7-9.8c0-5.8-4.5-10.1-10.4-10c-5.6,0.1-9.8,4.5-9.7,10.2C532.9,597.3,537.3,601.4,543.2,601.3z M347.6,225.8
		c-0.1-5.8-4.4-10.1-10-9.9c-5.7,0.1-10,4.5-10,10.1c0,5.4,4.7,9.9,10.3,9.7C343.2,235.6,347.6,231.1,347.6,225.8z M336.9,506.5
		c5.5-0.1,10.1-4.6,10.1-10.1c0-5.3-4.9-10.1-10.1-10.1c-5.6,0-10,4.5-9.9,10.1C327,502.2,331.4,506.6,336.9,506.5z M176.2,343.7
		c0-5.3-4.5-9.6-10-9.5c-5.5,0-9.9,4.6-9.9,10.1c0,5.4,4.7,10.2,10,10C171.9,354.1,176.2,349.5,176.2,343.7z M439.6,651.2
		c0.1-5.6-4.2-10.1-9.8-10.3c-5.6-0.2-10.1,4.2-10.2,9.8c-0.1,5.7,4.1,10.1,9.7,10.2C435,661.1,439.5,656.8,439.6,651.2z M170,650.9
		c0-5.8-4.1-10.1-9.8-10.1c-5.7,0-10.1,4.3-10.2,9.8c-0.1,5.5,4.4,10,9.9,10.1C165.5,660.9,170,656.5,170,650.9z M419.7,150.3
		c0,5.7,4.3,10.1,10,10.1c5.4,0.1,10.1-4.6,10.2-10.1c0.1-5.7-4.3-10-10-10C424.2,140.4,419.7,144.7,419.7,150.3z M391.3,221.3
		c0-5.4-4.7-10.1-10.1-10.2c-5.3-0.1-9.9,4.4-10,9.8c-0.1,5.9,4.3,10.3,10.2,10.2C387,231,391.3,226.7,391.3,221.3z M58.3,591.7
		c-0.1-5.6-4.8-10.3-10.4-10.2c-5.5,0.1-9.5,4.3-9.5,10c0,5.7,4.5,10,10.1,9.9C54.1,601.3,58.4,597.1,58.3,591.7z M86.6,369.8
		c-5.4-0.1-9.9,4.1-10,9.6c-0.2,5.6,4.2,10.3,9.6,10.4c5.6,0.1,10.1-4.2,10.2-9.8C96.5,374.3,92.2,369.9,86.6,369.8z M208.3,230.8
		c5.6-0.1,9.9-4.6,9.8-10.2c-0.1-5.5-4.7-9.8-10.4-9.6c-5.4,0.1-9.6,4.3-9.6,9.5C198,226.3,202.5,230.8,208.3,230.8z M294.5,539.7
		c5.4,0.1,10.2-4.5,10.3-9.9c0.1-5.2-4.7-10-10.2-10c-5.5,0-10,4.3-10,9.6C284.6,534.9,289.1,539.6,294.5,539.7z M294.6,280.8
		c5.6,0.1,10-4.3,10.1-9.9c0.1-5.5-4.4-10.1-10-10.2c-5.6,0-10.1,4.4-10.1,9.9C284.6,276.1,289.1,280.7,294.6,280.8z M122,445.3
		c-5.4,0-10,4.3-10,9.5c-0.1,5.9,4.3,10.4,10,10.4c5.4,0,10.1-4.6,10.1-10C132.1,449.8,127.5,445.3,122,445.3z M475.8,207.6
		c0.1-5.5-4.1-9.9-9.5-10c-6-0.2-10.4,3.9-10.5,9.8c-0.1,5.5,4.4,9.9,10.1,10C471.1,217.4,475.7,212.9,475.8,207.6z M173.2,249
		c0.1-5.6-4.3-10.1-9.9-10.1c-5.6,0-10,4.3-10.1,10c-0.1,5.7,4.2,10,9.9,10C168.8,258.9,173.1,254.6,173.2,249z M466.3,334.8
		c-5.6-0.1-10.1,4.3-10.1,9.9c-0.1,5.6,4.3,9.9,10.1,9.9c5.4,0,9.9-4.3,10-9.7C476.3,339.4,471.9,334.8,466.3,334.8z M413.2,344.6
		c0,5.8,4.4,10.5,10,10.6c5.5,0.1,10-4.5,10.1-10c0.1-5.4-4.5-10-10-10.1C417.7,335,413.3,339.2,413.2,344.6z M261.8,226.2
		c0-5.9-4.3-10.3-10.2-10.3c-5.4,0-9.7,4.3-9.8,9.8c-0.1,5.5,4.4,10.1,10,10.1C257.3,235.7,261.8,231.4,261.8,226.2z M434.5,523.4
		c0-5.6-4.4-9.9-10.1-10c-5.5,0-10,4.5-10,10c-0.1,5.5,4.4,9.9,10.1,9.9C430.1,533.4,434.5,529,434.5,523.4z M284.6,229.3
		c0.1,5.6,4.7,10.2,10.1,10c5.4-0.2,9.7-4.9,9.6-10.5c-0.2-5.4-4.6-9.7-10-9.7C288.7,219.1,284.5,223.5,284.6,229.3z M438,627.5
		c0.1-5.6-4.3-10.2-9.8-10.3c-5.5-0.1-10,4.4-10.1,10c-0.1,5.4,4.2,9.9,9.6,10C433.4,637.4,438,633.1,438,627.5z M361.6,637.4
		c-5.5-0.3-10.1,4.1-10.4,9.7c-0.2,5.4,3.9,10,9.3,10.3c5.6,0.3,10.3-3.9,10.6-9.4C371.3,642.3,367.1,637.7,361.6,637.4z
		 M304.8,171.6c-0.1-5.8-4.8-10.4-10.4-10.2c-5.3,0.2-9.6,4.8-9.5,10.2c0,5.6,4.5,10,10.2,9.8C300.7,181.3,304.9,177,304.8,171.6z
		 M503.9,407.9c-5.8,0-10.2,4.2-10.1,9.9c0.1,5.4,4.4,9.9,9.8,9.9c5.6,0.1,10.2-4.3,10.3-9.8C513.9,412.1,509.7,407.9,503.9,407.9z
		 M304.2,571.6c0-5.6-4.4-10.1-9.9-10c-5.6,0-9.7,4.3-9.7,10.2c0,5.4,4.3,9.8,9.7,9.9C299.7,581.7,304.2,577.1,304.2,571.6z
		 M435.1,417.9c0.1-5.5-4.1-9.8-9.7-9.9c-5.5-0.1-10.3,4.4-10.3,9.8c0,5.6,4.4,10.1,10,10.2C430.5,428,435,423.5,435.1,417.9z
		 M164.9,533.3c5.6-0.1,9.9-4.5,9.8-10.2c-0.1-5.4-4.4-9.7-9.8-9.7c-5.5,0-10.1,4.5-10.1,10C154.7,528.9,159.3,533.4,164.9,533.3z
		 M96.4,347.4c0-5.4-4.6-9.9-10.2-9.8c-5.4,0.1-9.8,4.5-9.8,9.8c0,5.6,4.5,10.1,9.9,10.1C91.9,357.5,96.4,352.9,96.4,347.4z
		 M161.7,637.1c5.8,0,10.3-4.2,10.3-9.7c0-5.4-4.6-10-10.1-10c-5.8-0.1-9.9,4.2-9.9,10C152.1,633,156.2,637.1,161.7,637.1z
		 M209,428.2c5.2-0.1,9.8-4.7,9.8-9.9c0-5.5-4.6-10.1-10-10c-5.7,0.1-10.1,4.7-9.9,10.5C199,424.1,203.5,428.3,209,428.2z
		 M380.1,428.8c5.4-0.1,9.8-4.8,9.7-10.3c-0.2-5.4-4.5-9.6-10-9.6c-5.6,0-10,4.4-9.9,10C369.9,424.3,374.7,428.9,380.1,428.8z
		 M124.1,604.1c5.6-0.1,10.1-4.6,9.9-10.2c-0.1-5.1-4.9-9.7-10.2-9.7c-5.4,0-9.7,4.4-9.7,9.9C114.1,599.9,118.4,604.2,124.1,604.1z
		 M261.7,420.2c0-5.4-4.4-9.8-9.8-9.8c-5.5,0-10.2,4.3-10.2,9.5c0,5.6,4.4,10.2,9.9,10.3C257.2,430.3,261.7,425.8,261.7,420.2z
		 M540.9,346c5.8,0,10.1-4.1,10.2-9.7c0.1-5.4-4.4-9.9-10-10c-5.7-0.1-9.8,4.1-9.9,10C531.3,341.7,535.4,345.9,540.9,346z
		 M303.9,361.9c0-5.6-4.4-9.9-10.1-9.8c-5.2,0-9.8,4.6-9.8,9.8c0,5.5,4.5,10.1,10,10.1C299.6,372,303.9,367.6,303.9,361.9z
		 M58.9,389.1c-0.1-5.8-4.7-10.1-10.6-9.9c-5.5,0.2-9.6,4.5-9.5,10.1c0.1,5.7,4.6,9.9,10.3,9.7C54.7,398.8,59,394.5,58.9,389.1z
		 M174.7,417.8c0-5.3-4.3-9.6-9.5-9.6c-5.6,0-10.3,4.5-10.4,9.8c0,5.5,4.5,10,10.1,10C170.4,428,174.7,423.5,174.7,417.8z
		 M346.4,420.1c0-5.1-4.8-9.6-10.1-9.5c-5.4,0.1-9.8,4.5-9.7,9.9c0,5.5,4.3,9.9,9.6,10C341.8,430.4,346.4,425.8,346.4,420.1z
		 M165.6,464.6c5.3,0,9.6-4.6,9.5-10c-0.1-5.5-4.3-9.8-9.7-9.9c-5.5-0.1-9.9,4.4-10,10C155.4,460.1,160,464.6,165.6,464.6z
		 M337.5,565.4c-5.6,0.1-10,4.2-10,9.5c0,5.6,4.4,10.1,9.9,10.1c5.7,0,9.9-4.3,9.9-10C347.4,569.6,343,565.3,337.5,565.4z
		 M476.4,594.3c0-5.5-4.4-9.7-10.3-9.7c-5.4,0-9.5,4.1-9.6,9.5c-0.1,5.6,4.3,10.1,9.9,10.2C472.1,604.3,476.4,600,476.4,594.3z
		 M293.8,448.9c5.6,0.1,10.1-4.3,10.2-9.8c0.1-5.4-4.2-9.7-9.7-9.9c-5.7-0.2-10,4-10.2,9.8C284.1,444.3,288.4,448.8,293.8,448.9z
		 M551.5,252.9c-8.7-5.2-16.7-6-25.1-4.1c-7.9,1.8-7.9,2-4.4,9c0.4,0.8,0.9,1.6,1.4,2.5c6.1-1.8,12.2-2.7,18.3-0.7
		c0.8,0.3,2.1-0.3,2.8-0.8C546.7,257.1,548.8,255.2,551.5,252.9z M38.9,547.4c7.2,3.9,14.1,4.9,21.4,4c9.7-1.1,10.7-3.3,5.7-11.7
		c-0.1-0.2-0.4-0.3-0.6-0.5c-5.7,0.8-11.4,0.7-17.1,0.8c-1.1,0-2.4,0.2-3.2,0.9C43.1,542.8,41.3,544.9,38.9,547.4z M521.6,543.5
		c10.5,3.4,20.1,2.9,30.2-2c-2.2-2.5-3.9-4.7-5.9-6.5c-0.8-0.8-2.4-1.1-3.6-1.1c-4.8,0-9.6,0.3-14.4,0.5c-1,0.1-2.4,0.4-2.8,1.1
		C523.8,538,522.9,540.5,521.6,543.5z M39.3,480.3c10.2,4.8,19.5,5.7,29.5,1.9c-1.1-2.4-1.9-4.2-2.6-6c-1-2.6-2.4-3.3-5.4-2.9
		c-3.7,0.5-7.5-0.2-11.3-0.3c-1.3,0-3.1-0.2-3.9,0.6C43.4,475.4,41.7,477.7,39.3,480.3z M447,175.8c9.9-4,18.5-2.4,27.1,2
		c0.6-3.1,1.4-5.4,1.4-7.7c0-1.1-1-3-1.9-3.3c-7.1-2.4-14.4-3.2-21.7-1.4c-1.3,0.3-2.7,1.6-3.2,2.8
		C447.9,170.2,447.7,172.4,447,175.8z M446.3,365.2c-2.3,3.7-4.6,7.4-7,11.2c-3.4,5.6-3.1,9.3,1.6,15c4.3-6.6,8.6-13.2,12.6-19.3
		C451,369.6,448.8,367.5,446.3,365.2z M474.5,427.1c-4.2-6.6-7.8-12.4-11.7-18c-0.7-1-2.4-2.2-3.3-2c-1,0.3-2.1,1.9-2.3,3.2
		c-1.4,6.3,1.6,11.5,4.9,16.5c0.3,0.5,1.4,0.8,2.1,0.8C467.2,427.6,470.4,427.3,474.5,427.1z M140,571.2c4.4-4.1,8.3-7.7,12-11.3
		c0.6-0.6,1.1-2,0.8-2.8c-1.1-3-2.5-5.8-3.8-8.7c-4.4,4.2-8.4,7.8-12.2,11.6c-0.6,0.6-1,2.2-0.7,3C137,565.4,138.3,567.7,140,571.2z
		 M89.3,425.1c8.4-1.2,10.5-3.6,9.2-10.7c-1.4-7.6-3-8.5-11.6-6.5C87.7,413.5,88.5,419.2,89.3,425.1z M366.1,304.3
		c-3.4,0.6-6.3,0.9-9,1.5c-9.3,2.1-9.6,2.7-5.7,11.1c0.1,0.2,0.4,0.3,0.5,0.4c5-1.2,9.9-2.4,15.1-3.6
		C366.7,310.7,366.4,307.9,366.1,304.3z M504.9,389.8c-1.2-3.9-2.6-8.1-3.7-12.3c-0.8-3.1-2.3-3.8-5-2.5c-1.3,0.6-2.8,0.9-4,1.7
		c-0.7,0.5-1.4,1.9-1.2,2.7c1.9,10,2.9,10.8,13,11.1C504.1,390.5,504.2,390.3,504.9,389.8z M194.1,491.1c0.5-4.1,0.8-7.2,1.2-10.4
		c-4.8-0.4-9.2-0.8-13.9-1.2c-0.8,1.9-1.7,4-2.6,6c-0.9,2.1-0.3,3.3,1.9,3.6C185,489.9,189.4,490.4,194.1,491.1z M133.5,315.4
		c5.8,0.4,11.2,0.8,16.7,1c0.6,0,1.5-0.6,1.8-1.1c1-2.1,1.7-4.2,2.7-6.9c-5.5,0-10.3-0.1-15.1,0C133.7,308.6,133.4,309,133.5,315.4z
		 M411,311.3c-5.2-0.9-9.6-1.7-14.1-2.2c-0.7-0.1-2.1,1-2.3,1.8c-0.5,2.5-0.6,5.1-0.9,7.8c4.8,0.6,9.1,1.2,13.7,1.8
		C408.5,317.7,409.5,315.1,411,311.3z M147.8,396.3c1.5-3.3,2.6-5.8,3.7-8.3c0.9-2.2-2.9-10.6-5.1-11.3c-0.5-0.2-1.3,0-1.8,0.2
		c-1.6,0.8-3.4,1.5-4.7,2.7c-0.7,0.7-1.2,2.7-0.8,3.4C141.6,387.3,144.5,391.3,147.8,396.3z M178.2,309.9c1.1,3.3,1.8,5.7,2.8,7.9
		c0.3,0.7,1.5,1.5,2.3,1.5c3.8,0.2,7.6,0.1,11.7,0.1c-0.3-3.2-0.4-5.9-0.8-8.6c-0.1-0.6-1.2-1.6-1.8-1.6
		C187.9,309.3,183.4,309.6,178.2,309.9z M223.4,261.6c4.1-0.8,8-1.4,11.7-2.5c1-0.3,2.5-2.6,2.2-3.4c-1.5-4.5-3.5-8.8-5.6-13.9
		C228.7,249,226.1,255.1,223.4,261.6z M231,557.5c0.3,0.1,0.7,0.2,1,0.4c1.7-3.9,3.6-7.8,4.9-11.8c0.4-1.2-0.9-3.8-2-4.3
		c-3.6-1.4-7.5-2-11.7-3C225.9,545.3,228.4,551.4,231,557.5z M365.8,539c-5.1,1.2-9.8,2.3-15.2,3.6c2.4,5.5,4.6,10.5,7,16.2
		C360.5,551.6,363.1,545.5,365.8,539z M350.5,258.5c5.7,1.1,10.5,2.1,15.2,3c-2.6-6.2-5.2-12.3-8.1-19.3
		C355.1,247.9,352.8,253,350.5,258.5z M489.2,358.1c4.9-5.1,4.5-7.2-2.7-12.7c-2.6,3-5.1,6.1-7.7,9.1
		C482.5,355.8,485.8,357,489.2,358.1z M96.3,440.2c-0.5,2.6-1.9,5.1-1.2,6.6c1.3,2.5,4,4.4,6.3,6.7c2-3.1,3.9-6.1,5.9-9.4
		c-2-0.6-3.6-1-5.2-1.6C100.6,442,99,441.3,96.3,440.2z M99.3,343.9c-0.5,2.8-1,4.9-1.4,7.1c-0.5,2.5,2.1,5.9,4.2,5.4
		c3-0.7,5.9-1.8,9.4-2.9C107.2,350.1,103.4,347.1,99.3,343.9z M488.4,274.6c-2.6,3.2-4.8,5.9-7.1,8.6c5.5-0.3,10.9,2.3,16.7-0.9
		C494.5,279.5,491.7,277.2,488.4,274.6z M488.8,525.4c2.5-1.9,4.6-3.3,6.6-5c0.7-0.6,1.7-2,1.5-2.4c-0.5-0.9-1.7-2-2.6-2
		c-4,0-7.9,0.3-12.7,0.6C484.2,519.9,486.4,522.5,488.8,525.4z M100.3,525.4c2.1-3.1,3.8-5.7,5.8-8.7c-4.2-0.3-7.6-0.7-10.9-0.7
		c-0.9,0-2.2,0.6-2.6,1.3c-0.3,0.6,0.3,2,0.9,2.6C95.6,521.8,97.8,523.4,100.3,525.4z M474.4,622.2c-2.4,1.5-4.6,2.2-5.5,3.7
		c-0.9,1.5-1.2,4.6-0.3,5.5c1.4,1.3,4,1.5,6.1,1.7c0.3,0,1.4-2.6,1.3-3.9C475.9,627.1,475.1,625,474.4,622.2z M92,282.1
		c0.1,0.5,0.3,0.9,0.4,1.4c4.4,0,8.9,0,14.2,0c-2.5-3.1-4.4-5.4-6.5-8C97.2,277.9,94.6,280,92,282.1z M493,444.2
		c-4.4-8.3-6.2-8.5-11.5-2.1C485.1,442.8,488.6,443.4,493,444.2z"/>
</g>
</svg>
